<svg version="1" xmlns="http://www.w3.org/2000/svg" width="693.333" height="693.333" viewBox="0 0 520.000000 520.000000"><path d="M198.5 22c-7.1 1.6-13 6.8-15.1 13-.4 1.4-.8 17.3-.9 35.3l-.1 32.8 8.1-.7c9.6-.9 13.5-.9 24 0l8 .6V69.7l-.1-33.3-2.7-4.7c-4.4-7.4-13.4-11.6-21.2-9.7zM84 69.7c-12.4 1.8-19.8 13.1-16.7 25.6.9 3.6 4.3 7.6 24.6 27.9 12.9 13.1 23.8 23.8 24.2 23.8.3 0 1.8-1.8 3.2-3.9 3.3-4.9 16-17.6 20.9-20.9 2.1-1.3 3.8-2.7 3.8-3 0-.2-10-10.5-22.2-22.8C97 71.5 92.8 68.5 84 69.7zM313 70.3c-4.1.8-6.5 2.8-28.5 24.9l-24 23.9 3.5 2.7c4.8 3.7 18 16.8 21.6 21.5l3 3.9 23.2-23.2c12.8-12.7 24-24.6 24.8-26.3.9-1.7 1.6-5.1 1.6-7.6 0-11.3-7.8-19.6-19.2-20.6-.8-.1-3.5.3-6 .8zM514.8 103c-1 .9-1.8 2.2-1.8 2.9 0 .7-.4 1-.8.7-1-.6-4.8 3.5-4.4 4.7.1.5-.1.6-.6.3-1.1-.6-8.8 7.4-8.4 8.7.1.5-.1.6-.6.3-.9-.5-9.8 8.4-9.5 9.6.2.4 0 .7-.5.6-1.4-.5-5.4 4-4.7 5.3.5.8.4 1-.4.5-1.3-.8-11.3 8.3-10.5 9.6.3.5.2.7-.3.6-1.5-.5-5.6 4-4.8 5.3.5.8.4 1-.4.5-1.3-.8-14.8 12-14.4 13.5.2.5-.1.8-.6.6-1.1-.3-7.7 6.5-7.3 7.6.1.5-.2.6-.6.3-1.2-.7-4.4 2.8-3.5 3.8.5.4.3.6-.2.4-1.7-.5-5.8 3.9-5 5.3.5.8.4 1-.4.5-1.6-1-48.6 45.9-47.5 47.5.4.8.3.9-.5.5-1.4-.9-14.3 11.3-13.4 12.7.2.4 0 .6-.5.5-1.2-.4-29.8 28.1-29.4 29.3.1.5-.2.8-.6.7-1.3-.4-17.2 15.4-16.6 16.4.3.5.2.7-.3.6-1.3-.4-6.3 4.4-5.6 5.5.3.6.2.7-.3.4-.6-.3-4.7 3.2-9.2 7.7-4.5 4.6-8.4 8.1-8.8 7.7-.4-.3-.4.3 0 1.4.4 1.1.4 1.6 0 1.2-1-1-56.4 54.5-55.7 55.7.3.5.2.6-.4.3-1.3-.8-6.6 4.7-5.6 5.8.5.4.3.5-.3.2-.6-.4-2.9 1.3-5.2 3.8-2.2 2.4-4.3 4.1-4.7 3.7-.5-.4-.5.1-.2 1 .3 1 .3 1.7-.2 1.5-1.4-.4-28 26.6-27.4 27.7.3.6.3.8-.2.4-1-.9-31.5 29.1-31.5 30.9 0 .7-.4 1.2-.9 1-1.3-.4-10.3 9.1-9.6 10.2.3.6 0 .9-.7.6-1.6-.6-26.1 23.8-25 25 .4.5.2.5-.4.2-.6-.4-3.7 2-6.8 5.3-3.2 3.3-6.2 6-6.7 6s-.8.3-.7.7c.1.5-4.9 5.9-11.2 12L97.5 520H297c198.5 0 199.5-.1 204-2.1 5.5-2.5 10.5-7.1 13.3-12.4l2.2-4 .3-153.5c.1-84.4.1-174.5 0-200.1-.3-44.3-.4-46.5-2-44.9zm-5.8 11c0 .5-.5 1-1.1 1-.5 0-.7-.5-.4-1 .3-.6.8-1 1.1-1 .2 0 .4.4.4 1zm-4.5 11.9c-.9.8-3.6 1-3 .2.2-.4 1.1-.8 2-.8.8 0 1.3.3 1 .6zm6.1.3c.3.4-.1.5-1 .4-.8-.1-1.8-.5-2.2-.8-.3-.4.1-.5 1-.4.8.1 1.8.5 2.2.8zm-6.1 3.7c-.9.8-3.6 1-3 .2.2-.4 1.1-.8 2-.8.8 0 1.3.3 1 .6zm-5.9 3.7c.1.9 0 1.3-.4 1-.3-.4-.7-1.4-.8-2.2-.1-.9 0-1.3.4-1 .3.4.7 1.4.8 2.2zm-4 .9c-.1.8-.5 1.7-.8 2.1-.5.4-.4-1.6.1-3.4.3-.9.9.1.7 1.3zm8 5.1c.1.9 0 1.3-.4 1-.3-.4-.7-1.4-.8-2.2-.1-.9 0-1.3.4-1 .3.4.7 1.4.8 2.2zm-19.9 1.3c0 1.1-.5 1.8-.9 1.5-.4-.3-.5-1.1-.1-1.9.7-2.1 1.2-1.9 1 .4zm12 .6c0 .8-.4 1.2-.9.9-.5-.3-.6-1-.3-1.5.9-1.3 1.2-1.1 1.2.6zm4.3.1c0 .8-1.9 1.3-2.4.6-.3-.5.1-.9.9-.9s1.5.2 1.5.3zm-9.5 2.3c-.9.8-3.6 1-3 .2.2-.4 1.1-.8 2-.8.8 0 1.3.3 1 .6zm17 .9c-.3.3-1.1 0-1.8-.7-.9-1-.8-1.1.6-.5 1 .3 1.5.9 1.2 1.2zm-24 1.1c.3.5.2 1.2-.3 1.5-.5.3-.9-.1-.9-.9 0-1.7.3-1.9 1.2-.6zm11.8 1.6c-.7 2.1-1.2 1.9-1-.4 0-1.1.5-1.8.9-1.5.4.3.5 1.1.1 1.9zm-15.7 3c-.1.8-.5 1.7-.8 2.1-.5.4-.4-1.6.1-3.4.3-.9.9.1.7 1.3zm12.4-.9c0 .8-1.9 1.3-2.4.6-.3-.5.1-.9.9-.9s1.5.2 1.5.3zm-8.4 2.9c-.1.8-.5 1.7-.8 2.1-.5.4-.4-1.6.1-3.4.3-.9.9.1.7 1.3zm-10.5 2.2c1.2 1.6 1.2 1.7-.2.6-.9-.7-2-.9-2.4-.5-.5.4-.5.1-.1-.6.9-1.6 1.1-1.5 2.7.5zm38.5-.5c.3.4-.1.5-1 .4-.8-.1-1.8-.5-2.2-.8-.3-.4.1-.5 1-.4.8.1 1.8.5 2.2.8zm-22 1.3c-.1.8-.5 1.7-.8 2.1-.5.4-.4-1.6.1-3.4.3-.9.9.1.7 1.3zm-21.9 1.4c0 1.1-.5 1.8-.9 1.5-.4-.3-.5-1.1-.1-1.9.7-2.1 1.2-1.9 1 .4zm12 .6c0 .8-.4 1.2-.9.9-.5-.3-.6-1-.3-1.5.9-1.3 1.2-1.1 1.2.6zm27.9 2c-.1 1.3-.4 2.7-.7 3-.5.4-.4-4.1 0-5.3.4-1 .8.2.7 2.3zm-33.2.7c-.3.4-.9.8-1.5.8-.5 0-.9-.4-.9-.8 0-.5.7-.9 1.5-.9s1.2.4.9.9zm21.6-.8c0 .2-.7.7-1.6 1-.8.3-1.2.2-.9-.4.6-1 2.5-1.4 2.5-.6zm-36 5.1c0 .5-.5.3-1-.5s-1-2-1-2.5c0-.6.5-.3 1 .5s1 1.9 1 2.5zm19.6-2c-.1.8-.5 1.7-.8 2.1-.5.4-.4-1.6.1-3.4.3-.9.9.1.7 1.3zm7.8-.7c.2.4-.5.9-1.7.9-1.7.2-1.9 0-.7-.7 1.8-1.2 1.8-1.2 2.4-.2zM467 164c0 .5-.2 1-.4 1-.3 0-.8-.5-1.1-1-.3-.6-.1-1 .4-1 .6 0 1.1.4 1.1 1zm35.6 1.6c.1.9 0 1.3-.4 1-.3-.4-.7-1.4-.8-2.2-.1-.9 0-1.3.4-1 .3.4.7 1.4.8 2.2zm-9.6-.2c0 .3-.4.8-1 1.1-.5.3-1 .1-1-.4 0-.6.5-1.1 1-1.1.6 0 1 .2 1 .4zm-14.4 4.2c.1.9 0 1.3-.4 1-.3-.4-.7-1.4-.8-2.2-.1-.9 0-1.3.4-1 .3.4.7 1.4.8 2.2zm-23.6 0c0 .8-1.9 1.3-2.4.6-.3-.5.1-.9.9-.9s1.5.2 1.5.3zm36 0c0 .8-1.9 1.3-2.4.6-.3-.5.1-.9.9-.9s1.5.2 1.5.3zm7.6 2c.1.9 0 1.3-.4 1-.3-.4-.7-1.4-.8-2.2-.1-.9 0-1.3.4-1 .3.4.7 1.4.8 2.2zM509 170c0 .5-.5 1-1.1 1-.5 0-.7-.5-.4-1 .3-.6.8-1 1.1-1 .2 0 .4.4.4 1zm-22.3 3.5c0 .8-.4 1.2-.9.9-.5-.3-.6-1-.3-1.5.9-1.3 1.2-1.1 1.2.6zm-26.2.4c-.9.8-3.6 1-3 .2.2-.4 1.1-.8 2-.8.8 0 1.3.3 1 .6zm5.9 0c.3.5-.2 1.5-1.2 2.2-1.5 1.2-1.6 1.2-.5-.2.7-.9 1-1.9.6-2.2-.3-.4-.4-.7 0-.7.3 0 .8.4 1.1.9zm32.1 3.3c.5-.4.5-.1.1.6-.6 1-1.1 1-2.2.1-.8-.6-1.4-1.4-1.4-1.6 0-.3.6 0 1.3.6.8.6 1.8.7 2.2.3zm-48.1.6c.3.5-.1.9-.9.9s-1.2-.4-.9-.9c.3-.4.7-.8.9-.8.2 0 .6.4.9.8zm40.2 1.8c.1.9 0 1.3-.4 1-.3-.4-.7-1.4-.8-2.2-.1-.9 0-1.3.4-1 .3.4.7 1.4.8 2.2zM509 178c0 .5-.5 1-1.1 1-.5 0-.7-.5-.4-1 .3-.6.8-1 1.1-1 .2 0 .4.4.4 1zm-54.7 2.5c.4.8.3 1.6-.1 1.9-.4.3-.9-.4-.9-1.5-.2-2.3.3-2.5 1-.4zm24.2-.5c.3.5.1 1-.4 1-.6 0-1.1-.5-1.1-1 0-.6.2-1 .4-1 .3 0 .8.4 1.1 1zm-20 1.9c.3.5.2 1.2-.3 1.5-.5.3-.9-.1-.9-.9 0-1.7.3-1.9 1.2-.6zm10 0c-.9.8-3.6 1-3 .2.2-.4 1.1-.8 2-.8.8 0 1.3.3 1 .6zm13.9-.1c.3.5-.1.9-.9.9s-1.2-.4-.9-.9c.3-.4.7-.8.9-.8.2 0 .6.4.9.8zm5 0c.3.5-.1.9-.9.9s-1.2-.4-.9-.9c.3-.4.7-.8.9-.8.2 0 .6.4.9.8zm-40.4 1.6c0 .3-.4.8-1 1.1-.5.3-1 .1-1-.4 0-.6.5-1.1 1-1.1.6 0 1 .2 1 .4zm23.7 2.1c0 .8-.4 1.2-.9.9-.5-.3-.6-1-.3-1.5.9-1.3 1.2-1.1 1.2.6zm-31.3.3c.3.5-.1.9-.9.9s-1.2-.4-.9-.9c.3-.4.7-.8.9-.8.2 0 .6.4.9.8zm11.3 1.4c.2 1.7 0 1.9-.7.8-.5-.8-.6-1.8-.4-2.2.8-1.2 1-1 1.1 1.4zm23.9.4c.1.9 0 1.3-.4 1-.3-.4-.7-1.4-.8-2.2-.1-.9 0-1.3.4-1 .3.4.7 1.4.8 2.2zm11.9-1.7c-.9.8-3.6 1-3 .2.2-.4 1.1-.8 2-.8.8 0 1.3.3 1 .6zm-51.9 3.7c.1.9 0 1.3-.4 1-.3-.4-.7-1.4-.8-2.2-.1-.9 0-1.3.4-1 .3.4.7 1.4.8 2.2zm22 .6c.3.4-.1.5-1 .4-.8-.1-1.8-.5-2.2-.8-.3-.4.1-.5 1-.4.8.1 1.8.5 2.2.8zm36.4-.8c0 .3-.4.8-1 1.1-.5.3-1 .1-1-.4 0-.6.5-1.1 1-1.1.6 0 1 .2 1 .4zm10.4.4c.3.5-.1.9-.9.9s-1.2-.4-.9-.9c.3-.4.7-.8.9-.8.2 0 .6.4.9.8zm7.2.4c.3.4-.1.5-1 .4-.8-.1-1.8-.5-2.2-.8-.3-.4.1-.5 1-.4.8.1 1.8.5 2.2.8zm-80 5.4c.1.9 0 1.3-.4 1-.3-.4-.7-1.4-.8-2.2-.1-.9 0-1.3.4-1 .3.4.7 1.4.8 2.2zm8 0c.1.9 0 1.3-.4 1-.3-.4-.7-1.4-.8-2.2-.1-.9 0-1.3.4-1 .3.4.7 1.4.8 2.2zm17.9-1.6c.3.5.1 1-.4 1-.6 0-1.1-.5-1.1-1 0-.6.2-1 .4-1 .3 0 .8.4 1.1 1zm24.5.5c0 .2-.9.3-1.9.2-1.1 0-1.8-.5-1.5-.9.4-.6 3.4 0 3.4.7zm16-.5c0 .5-.5 1-1.1 1-.5 0-.7-.5-.4-1 .3-.6.8-1 1.1-1 .2 0 .4.4.4 1zm13.6.2c.3.4-.1.5-1 .4-.8-.1-1.8-.5-2.2-.8-.3-.4.1-.5 1-.4.8.1 1.8.5 2.2.8zm-36 3.4c.1.9 0 1.3-.4 1-.3-.4-.7-1.4-.8-2.2-.1-.9 0-1.3.4-1 .3.4.7 1.4.8 2.2zm-39.6 0c0 .8-1.9 1.3-2.4.6-.3-.5.1-.9.9-.9s1.5.2 1.5.3zm35.5.3c.3.5.2 1.2-.3 1.5-.5.3-.9-.1-.9-.9 0-1.7.3-1.9 1.2-.6zm36.2.6c0 .8-.4 1.2-.9.9-.5-.3-.6-1-.3-1.5.9-1.3 1.2-1.1 1.2.6zm-53.1 1.7c.3.4-.1.5-1 .4-.8-.1-1.8-.5-2.2-.8-.3-.4.1-.5 1-.4.8.1 1.8.5 2.2.8zm47.9-.3c-.9.8-3.6 1-3 .2.2-.4 1.1-.8 2-.8.8 0 1.3.3 1 .6zm-42.8 1.6c0 .8-.4 1.2-.9.9-.5-.3-.6-1-.3-1.5.9-1.3 1.2-1.1 1.2.6zm-36.2.4c-.9.8-3.6 1-3 .2.2-.4 1.1-.8 2-.8.8 0 1.3.3 1 .6zm56.1 1.7c.1.9 0 1.3-.4 1-.3-.4-.7-1.4-.8-2.2-.1-.9 0-1.3.4-1 .3.4.7 1.4.8 2.2zm16.8-1.8c.3.5-.1.9-.9.9s-1.2-.4-.9-.9c.3-.4.7-.8.9-.8.2 0 .6.4.9.8zm-4.8 3.8c.1.9 0 1.3-.4 1-.3-.4-.7-1.4-.8-2.2-.1-.9 0-1.3.4-1 .3.4.7 1.4.8 2.2zm-41.6.4c0 .5-.5 1-1.1 1-.5 0-.7-.5-.4-1 .3-.6.8-1 1.1-1 .2 0 .4.4.4 1zm13.5-.1c-.9.8-3.6 1-3 .2.2-.4 1.1-.8 2-.8.8 0 1.3.3 1 .6zm11.9.3c-.3.4-1.1.5-1.9.1-2.1-.7-1.9-1.2.4-1 1.1 0 1.8.5 1.5.9zm30.6-.8c0 .3-.4.8-1 1.1-.5.3-1 .1-1-.4 0-.6.5-1.1 1-1.1.6 0 1 .2 1 .4zm-24.3 2.1c0 .8-.4 1.2-.9.9-.5-.3-.6-1-.3-1.5.9-1.3 1.2-1.1 1.2.6zm-54.7.1c0 .8-1.9 1.3-2.4.6-.3-.5.1-.9.9-.9s1.5.2 1.5.3zm5-.2c0 .3-.4.8-1 1.1-.5.3-1 .1-1-.4 0-.6.5-1.1 1-1.1.6 0 1 .2 1 .4zm36.1.9c-.6.8-.7 1.8-.3 2.2.4.5.1.5-.6.1-1-.6-1-1.1-.1-2.2.6-.8 1.4-1.4 1.6-1.4.3 0 0 .6-.6 1.3zm-18.1 2.2c0 .2-.9.3-1.9.2-1.1 0-1.8-.5-1.5-.9.4-.6 3.4 0 3.4.7zm27.5-.6c-.9.8-3.6 1-3 .2.2-.4 1.1-.8 2-.8.8 0 1.3.3 1 .6zm9.8 1.6c-.7 2.1-1.2 1.9-1-.4 0-1.1.5-1.8.9-1.5.4.3.5 1.1.1 1.9zm18.2-1.6c-.9.8-3.6 1-3 .2.2-.4 1.1-.8 2-.8.8 0 1.3.3 1 .6zm-93.9 2.6c-.1.8-.5 1.7-.8 2.1-.5.4-.4-1.6.1-3.4.3-.9.9.1.7 1.3zm11.9-.5c.3.5.1 1-.4 1-.6 0-1.1-.5-1.1-1 0-.6.2-1 .4-1 .3 0 .8.4 1.1 1zm20.1 1.6c.1.9 0 1.3-.4 1-.3-.4-.7-1.4-.8-2.2-.1-.9 0-1.3.4-1 .3.4.7 1.4.8 2.2zm56 0c.1.9 0 1.3-.4 1-.3-.4-.7-1.4-.8-2.2-.1-.9 0-1.3.4-1 .3.4.7 1.4.8 2.2zm-92.1.3c.3.5.2 1.2-.3 1.5-.5.3-.9-.1-.9-.9 0-1.7.3-1.9 1.2-.6zm20 0c.3.5.2 1.2-.3 1.5-.5.3-.9-.1-.9-.9 0-1.7.3-1.9 1.2-.6zm44 0c-.9.8-3.6 1-3 .2.2-.4 1.1-.8 2-.8.8 0 1.3.3 1 .6zm7.8 1.6c-.7 2.1-1.2 1.9-1-.4 0-1.1.5-1.8.9-1.5.4.3.5 1.1.1 1.9zm17.1-1.7c.3.5-.1.9-.9.9s-1.2-.4-.9-.9c.3-.4.7-.8.9-.8.2 0 .6.4.9.8zm-31.1 3.7c-.3.9-.8 1.4-1 1.1-.3-.3-.2-.9.2-1.5.9-1.6 1.5-1.3.8.4zm-33.3.1c0 .8-1.9 1.3-2.4.6-.3-.5.1-.9.9-.9s1.5.2 1.5.3zm15.6 2c.1.9 0 1.3-.4 1-.3-.4-.7-1.4-.8-2.2-.1-.9 0-1.3.4-1 .3.4.7 1.4.8 2.2zm3.8-1.8c.3.5-.1.9-.9.9s-1.2-.4-.9-.9c.3-.4.7-.8.9-.8.2 0 .6.4.9.8zm41.6-.2c0 .8-1.9 1.3-2.4.6-.3-.5.1-.9.9-.9s1.5.2 1.5.3zm10.3 1.9c-.7 2.1-1.2 1.9-1-.4 0-1.1.5-1.8.9-1.5.4.3.5 1.1.1 1.9zm-83.3.5c0 .5-.2 1-.4 1-.3 0-.8-.5-1.1-1-.3-.6-.1-1 .4-1 .6 0 1.1.4 1.1 1zm35.6.5c-.1.8-.5 1.7-.8 2.1-.5.4-.4-1.6.1-3.4.3-.9.9.1.7 1.3zm-51.2 1.3c.3.5-.1.9-.9.9s-1.2-.4-.9-.9c.3-.4.7-.8.9-.8.2 0 .6.4.9.8zm7.2.4c.3.4-.1.5-1 .4-.8-.1-1.8-.5-2.2-.8-.3-.4.1-.5 1-.4.8.1 1.8.5 2.2.8zm31.8 0c-.3.4-1.1.5-1.9.1-2.1-.7-1.9-1.2.4-1 1.1 0 1.8.5 1.5.9zm44-.4c.3.5-.1.9-.9.9s-1.2-.4-.9-.9c.3-.4.7-.8.9-.8.2 0 .6.4.9.8zm12.1.1c-.9.8-3.6 1-3 .2.2-.4 1.1-.8 2-.8.8 0 1.3.3 1 .6zm-63.4 2.4c-.6.8-.7 1.8-.3 2.2.4.5.1.5-.6.1-1-.6-1-1.1-.1-2.2.6-.8 1.4-1.4 1.6-1.4.3 0 0 .6-.6 1.3zm47.4.6c.3.5.2 1.2-.3 1.5-.5.3-.9-.1-.9-.9 0-1.7.3-1.9 1.2-.6zm-74 1.1c.3.5.1 1-.4 1-.6 0-1.1-.5-1.1-1 0-.6.2-1 .4-1 .3 0 .8.4 1.1 1zm36-.1c-.9.8-3.6 1-3 .2.2-.4 1.1-.8 2-.8.8 0 1.3.3 1 .6zm18.1.6c-.1.8-.5 1.7-.8 2.1-.5.4-.4-1.6.1-3.4.3-.9.9.1.7 1.3zm8 0c-.1.8-.5 1.7-.8 2.1-.5.4-.4-1.6.1-3.4.3-.9.9.1.7 1.3zm18 1c-.1.8-.5 1.7-.8 2.1-.5.4-.4-1.6.1-3.4.3-.9.9.1.7 1.3zm-37.6.5c0 .5-.2 1-.4 1-.3 0-.8-.5-1.1-1-.3-.6-.1-1 .4-1 .6 0 1.1.4 1.1 1zm48 0c0 .5-.5 1-1.1 1-.5 0-.7-.5-.4-1 .3-.6.8-1 1.1-1 .2 0 .4.4.4 1zm-60.5 1.9c-.9.8-3.6 1-3 .2.2-.4 1.1-.8 2-.8.8 0 1.3.3 1 .6zm7.8 1.6c-.7 2.1-1.2 1.9-1-.4 0-1.1.5-1.8.9-1.5.4.3.5 1.1.1 1.9zm28.1-1.7c.3.5-.1.9-.9.9s-1.2-.4-.9-.9c.3-.4.7-.8.9-.8.2 0 .6.4.9.8zm20.2.7c-.1.8-.5 1.7-.8 2.1-.5.4-.4-1.6.1-3.4.3-.9.9.1.7 1.3zm16-.3c.3.4-.1.5-1 .4-.8-.1-1.8-.5-2.2-.8-.3-.4.1-.5 1-.4.8.1 1.8.5 2.2.8zM399 231.4c0 .3-.4.8-1 1.1-.5.3-1 .1-1-.4 0-.6.5-1.1 1-1.1.6 0 1 .2 1 .4zm63.6 2.2c.1.9 0 1.3-.4 1-.3-.4-.7-1.4-.8-2.2-.1-.9 0-1.3.4-1 .3.4.7 1.4.8 2.2zm-51.9-.1c0 .8-.4 1.2-.9.9-.5-.3-.6-1-.3-1.5.9-1.3 1.2-1.1 1.2.6zm95.8-.6c.3.5.2 1.2-.3 1.5-.5.3-.9-.1-.9-.9 0-1.7.3-1.9 1.2-.6zm-115.1.9c.3.5-.1.9-.9.9s-1.2-.4-.9-.9c.3-.4.7-.8.9-.8.2 0 .6.4.9.8zm29.1.1c-.9.8-3.6 1-3 .2.2-.4 1.1-.8 2-.8.8 0 1.3.3 1 .6zm18.9-.1c.3.5-.1.9-.9.9s-1.2-.4-.9-.9c.3-.4.7-.8.9-.8.2 0 .6.4.9.8zm37.1.2c.3.5.1 1-.4 1-.6 0-1.1-.5-1.1-1 0-.6.2-1 .4-1 .3 0 .8.4 1.1 1zm-19.9 2.6c.1.9 0 1.3-.4 1-.3-.4-.7-1.4-.8-2.2-.1-.9 0-1.3.4-1 .3.4.7 1.4.8 2.2zm-70 1c.1.9 0 1.3-.4 1-.3-.4-.7-1.4-.8-2.2-.1-.9 0-1.3.4-1 .3.4.7 1.4.8 2.2zM483 236c0 .5-.5 1-1.1 1-.5 0-.7-.5-.4-1 .3-.6.8-1 1.1-1 .2 0 .4.4.4 1zm11.6 1.6c.1.9 0 1.3-.4 1-.3-.4-.7-1.4-.8-2.2-.1-.9 0-1.3.4-1 .3.4.7 1.4.8 2.2zm8.4-2.2c0 .3-.4.8-1 1.1-.5.3-1 .1-1-.4 0-.6.5-1.1 1-1.1.6 0 1 .2 1 .4zm-102.2 3.1c-.3.3-.9-.2-1.2-1.2-.6-1.4-.5-1.5.5-.6.7.7 1 1.5.7 1.8zm13.7-.6c-.9.8-3.6 1-3 .2.2-.4 1.1-.8 2-.8.8 0 1.3.3 1 .6zm8 0c.3.5.2 1.2-.3 1.5-.5.3-.9-.1-.9-.9 0-1.7.3-1.9 1.2-.6zm28.1 1.7c.1.9 0 1.3-.4 1-.3-.4-.7-1.4-.8-2.2-.1-.9 0-1.3.4-1 .3.4.7 1.4.8 2.2zM469 238c0 .5-.2 1-.4 1-.3 0-.8-.5-1.1-1-.3-.6-.1-1 .4-1 .6 0 1.1.4 1.1 1zm20.4 2.2c-.3.4-.9.8-1.5.8-.5 0-.9-.4-.9-.8 0-.5.7-.9 1.5-.9s1.2.4.9.9zm16.5.2c.9 1.1.9 1.6-.1 2.2-.7.4-1 .4-.6-.1.4-.4.3-1.4-.3-2.2-.6-.7-.9-1.3-.6-1.3.2 0 1 .6 1.6 1.4zm-95.2 1.1c0 .8-.4 1.2-.9.9-.5-.3-.6-1-.3-1.5.9-1.3 1.2-1.1 1.2.6zm60 0c0 .8-.4 1.2-.9.9-.5-.3-.6-1-.3-1.5.9-1.3 1.2-1.1 1.2.6zm-72.1 2.1c.1.9 0 1.3-.4 1-.3-.4-.7-1.4-.8-2.2-.1-.9 0-1.3.4-1 .3.4.7 1.4.8 2.2zm21.9-1.7c-.9.8-3.6 1-3 .2.2-.4 1.1-.8 2-.8.8 0 1.3.3 1 .6zm11.9.7c.3.8.2 1.2-.4.9-.6-.3-1-1-1-1.6 0-1.4.7-1.1 1.4.7zm50.2 1c.1.9 0 1.3-.4 1-.3-.4-.7-1.4-.8-2.2-.1-.9 0-1.3.4-1 .3.4.7 1.4.8 2.2zm12-1.1c-.1.8-.5 1.7-.8 2.1-.5.4-.4-1.6.1-3.4.3-.9.9.1.7 1.3zm-116 2c-.1.8-.5 1.7-.8 2.1-.5.4-.4-1.6.1-3.4.3-.9.9.1.7 1.3zm96 0c-.1.8-.5 1.7-.8 2.1-.5.4-.4-1.6.1-3.4.3-.9.9.1.7 1.3zm28 1.1c.1.9 0 1.3-.4 1-.3-.4-.7-1.4-.8-2.2-.1-.9 0-1.3.4-1 .3.4.7 1.4.8 2.2zm-52.1-.7c.3.5.2 1.2-.3 1.5-.5.3-.9-.1-.9-.9 0-1.7.3-1.9 1.2-.6zm-55.5.7c0 .8-1.9 1.3-2.4.6-.3-.5.1-.9.9-.9s1.5.2 1.5.3zm19.5.3c-.9.8-3.6 1-3 .2.2-.4 1.1-.8 2-.8.8 0 1.3.3 1 .6zm8 0c.3.5.2 1.2-.3 1.5-.5.3-.9-.1-.9-.9 0-1.7.3-1.9 1.2-.6zm39.9.3c-.3.4-1.1.5-1.9.1-2.1-.7-1.9-1.2.4-1 1.1 0 1.8.5 1.5.9zM387 248c0 .5-.5 1-1.1 1-.5 0-.7-.5-.4-1 .3-.6.8-1 1.1-1 .2 0 .4.4.4 1zm42.6.2c.3.4-.1.5-1 .4-.8-.1-1.8-.5-2.2-.8-.3-.4.1-.5 1-.4.8.1 1.8.5 2.2.8zm5 1.4c.1.9 0 1.3-.4 1-.3-.4-.7-1.4-.8-2.2-.1-.9 0-1.3.4-1 .3.4.7 1.4.8 2.2zm47.9-.7c.3.5.2 1.2-.3 1.5-.5.3-.9-.1-.9-.9 0-1.7.3-1.9 1.2-.6zm-99.9 2.7c.1.9 0 1.3-.4 1-.3-.4-.7-1.4-.8-2.2-.1-.9 0-1.3.4-1 .3.4.7 1.4.8 2.2zm32-1.4c.3.4-.1.5-1 .4-.8-.1-1.8-.5-2.2-.8-.3-.4.1-.5 1-.4.8.1 1.8.5 2.2.8zm30.4.3c0 .2-.9.3-1.9.2-1.1 0-1.8-.5-1.5-.9.4-.6 3.4 0 3.4.7zm9.7 0c0 .8-.4 1.2-.9.9-.5-.3-.6-1-.3-1.5.9-1.3 1.2-1.1 1.2.6zm13.8-.5c.3.5.1 1-.4 1-.6 0-1.1-.5-1.1-1 0-.6.2-1 .4-1 .3 0 .8.4 1.1 1zm10.1.5c-.1.8-.5 1.7-.8 2.1-.5.4-.4-1.6.1-3.4.3-.9.9.1.7 1.3zm20 1.1c.1.9 0 1.3-.4 1-.3-.4-.7-1.4-.8-2.2-.1-.9 0-1.3.4-1 .3.4.7 1.4.8 2.2zM509 250c0 .5-.5 1-1.1 1-.5 0-.7-.5-.4-1 .3-.6.8-1 1.1-1 .2 0 .4.4.4 1zm-130.5 3.9c-.9.8-3.6 1-3 .2.2-.4 1.1-.8 2-.8.8 0 1.3.3 1 .6zm20 2.2c.1 1.1-.1 2.2-.5 2.4-.3.2-.6-.9-.6-2.5 0-3.3.9-3.2 1.1.1zm12.2-1.1c.1 1.1-.2 2-.7 2-.6 0-.7-1.7-.1-3.8.3-.8.7.1.8 1.8zm14.3-1c0 .5-.2 1-.4 1-.3 0-.8-.5-1.1-1-.3-.6-.1-1 .4-1 .6 0 1.1.4 1.1 1zm13.5-.1c-.9.8-3.6 1-3 .2.2-.4 1.1-.8 2-.8.8 0 1.3.3 1 .6zm8 0c.3.5.2 1.2-.3 1.5-.5.3-.9-.1-.9-.9 0-1.7.3-1.9 1.2-.6zm12 0c.3.5.2 1.2-.3 1.5-.5.3-.9-.1-.9-.9 0-1.7.3-1.9 1.2-.6zm24 0c.3.5.2 1.2-.3 1.5-.5.3-.9-.1-.9-.9 0-1.7.3-1.9 1.2-.6zm12.2.6c0 .8-.4 1.2-.9.9-.5-.3-.6-1-.3-1.5.9-1.3 1.2-1.1 1.2.6zm-29.7 1.1c0 .8-1.9 1.3-2.4.6-.3-.5.1-.9.9-.9s1.5.2 1.5.3zm-30.5 1.3c.3.5.2 1.2-.3 1.5-.5.3-.9-.1-.9-.9 0-1.7.3-1.9 1.2-.6zm36.2.6c0 .8-.4 1.2-.9.9-.5-.3-.6-1-.3-1.5.9-1.3 1.2-1.1 1.2.6zm-104.1.7c.3.4-.1.5-1 .4-.8-.1-1.8-.5-2.2-.8-.3-.4.1-.5 1-.4.8.1 1.8.5 2.2.8zm11.8-.4c.2.4-.5.9-1.7.9-1.7.2-1.9 0-.7-.7 1.8-1.2 1.8-1.2 2.4-.2zm12.2.4c.3.4-.1.5-1 .4-.8-.1-1.8-.5-2.2-.8-.3-.4.1-.5 1-.4.8.1 1.8.5 2.2.8zm102.4.3c0 .2-.9.3-1.9.2-1.1 0-1.8-.5-1.5-.9.4-.6 3.4 0 3.4.7zm11.6-.3c.3.4-.1.5-1 .4-.8-.1-1.8-.5-2.2-.8-.3-.4.1-.5 1-.4.8.1 1.8.5 2.2.8zm6.4-.6c0 .8-1.9 1.3-2.4.6-.3-.5.1-.9.9-.9s1.5.2 1.5.3zm-128.4 2.9c-.1.8-.5 1.7-.8 2.1-.5.4-.4-1.6.1-3.4.3-.9.9.1.7 1.3zm48 1.1c.1.9 0 1.3-.4 1-.3-.4-.7-1.4-.8-2.2-.1-.9 0-1.3.4-1 .3.4.7 1.4.8 2.2zM451 260c0 .5-.5 1-1.1 1-.5 0-.7-.5-.4-1 .3-.6.8-1 1.1-1 .2 0 .4.4.4 1zm23.6.5c-.1.8-.5 1.7-.8 2.1-.5.4-.4-1.6.1-3.4.3-.9.9.1.7 1.3zm-111.9 2c0 .8-.4 1.2-.9.9-.5-.3-.6-1-.3-1.5.9-1.3 1.2-1.1 1.2.6zm24 .7c.2 1.7 0 1.9-.7.8-.5-.8-.6-1.8-.4-2.2.8-1.2 1-1 1.1 1.4zm9.9-1c.3.4-.1.5-1 .4-.8-.1-1.8-.5-2.2-.8-.3-.4.1-.5 1-.4.8.1 1.8.5 2.2.8zm24.4-.8c0 .3-.4.8-1 1.1-.5.3-1 .1-1-.4 0-.6.5-1.1 1-1.1.6 0 1 .2 1 .4zm25.6 1.1c-.1.8-.5 1.7-.8 2.1-.5.4-.4-1.6.1-3.4.3-.9.9.1.7 1.3zm16-.3c.3.4-.1.5-1 .4-.8-.1-1.8-.5-2.2-.8-.3-.4.1-.5 1-.4.8.1 1.8.5 2.2.8zm22.4-.2c0 .5-.2 1-.4 1-.3 0-.8-.5-1.1-1-.3-.6-.1-1 .4-1 .6 0 1.1.4 1.1 1zm16.6 2.2c.3.4-.1.5-1 .4-.8-.1-1.8-.5-2.2-.8-.3-.4.1-.5 1-.4.8.1 1.8.5 2.2.8zm-127.1.7c.3.5.2 1.2-.3 1.5-.5.3-.9-.1-.9-.9 0-1.7.3-1.9 1.2-.6zm84 0c.3.5.2 1.2-.3 1.5-.5.3-.9-.1-.9-.9 0-1.7.3-1.9 1.2-.6zm48.2.6c0 .8-.4 1.2-.9.9-.5-.3-.6-1-.3-1.5.9-1.3 1.2-1.1 1.2.6zm-128.1 1c-.1.8-.5 1.7-.8 2.1-.5.4-.4-1.6.1-3.4.3-.9.9.1.7 1.3zm36-.3c.3.4-.1.5-1 .4-.8-.1-1.8-.5-2.2-.8-.3-.4.1-.5 1-.4.8.1 1.8.5 2.2.8zm11.9-.3c.3.5.2 1.2-.3 1.5-.5.3-.9-.1-.9-.9 0-1.7.3-1.9 1.2-.6zm28.1.6c-.1.8-.5 1.7-.8 2.1-.5.4-.4-1.6.1-3.4.3-.9.9.1.7 1.3zm13.9-.5c.3.5.1 1-.4 1-.6 0-1.1-.5-1.1-1 0-.6.2-1 .4-1 .3 0 .8.4 1.1 1zm10.1.5c-.1.8-.5 1.7-.8 2.1-.5.4-.4-1.6.1-3.4.3-.9.9.1.7 1.3zm9.4-.9c0 .8-1.9 1.3-2.4.6-.3-.5.1-.9.9-.9s1.5.2 1.5.3zm-53 2.4c0 .5-.5 1-1.1 1-.5 0-.7-.5-.4-1 .3-.6.8-1 1.1-1 .2 0 .4.4.4 1zm11.6 1.6c.1.9 0 1.3-.4 1-.3-.4-.7-1.4-.8-2.2-.1-.9 0-1.3.4-1 .3.4.7 1.4.8 2.2zm-61.6-1.2c0 .2-.6.9-1.4 1.5-1.1.9-1.6.9-2.2 0-.4-.7-.3-.9.4-.5.6.3 1.3.2 1.7-.4.6-1 1.5-1.4 1.5-.6zm105.5.5c.3.5.2 1.2-.3 1.5-.5.3-.9-.1-.9-.9 0-1.7.3-1.9 1.2-.6zm-129.5.5c0 .3-.4.8-1 1.1-.5.3-1 .1-1-.4 0-.6.5-1.1 1-1.1.6 0 1 .2 1 .4zm49.7 1.1c0 .8-.4 1.2-.9.9-.5-.3-.6-1-.3-1.5.9-1.3 1.2-1.1 1.2.6zm12-.8c-.4.3-.1 1.3.6 2.2 1.1 1.4 1 1.4-.5.2-1.6-1.2-1.6-3.1-.1-3.1.4 0 .3.3 0 .7zm87.7.5c-.3.4-1.1.5-1.9.1-2.1-.7-1.9-1.2.4-1 1.1 0 1.8.5 1.5.9zm-143.9 2.6c-.3.3-1.1 0-1.8-.7-.9-1-.8-1.1.6-.5 1 .3 1.5.9 1.2 1.2zm74.5-1c0 .5-.7.9-1.5.9s-1.2-.4-.9-.9c.3-.4.9-.8 1.5-.8.5 0 .9.4.9.8zm37.6 1.8c.1.9 0 1.3-.4 1-.3-.4-.7-1.4-.8-2.2-.1-.9 0-1.3.4-1 .3.4.7 1.4.8 2.2zm28.1-.1c0 .8-.4 1.2-.9.9-.5-.3-.6-1-.3-1.5.9-1.3 1.2-1.1 1.2.6zm-156.4 2c-.7 2.1-1.2 1.9-1-.4 0-1.1.5-1.8.9-1.5.4.3.5 1.1.1 1.9zm49.8-.2c-1 .9-1.1.8-.5-.6.3-1 .9-1.5 1.2-1.2.3.3 0 1.1-.7 1.8zm14.5-1.1c.3.4-.1.5-1 .4-.8-.1-1.8-.5-2.2-.8-.3-.4.1-.5 1-.4.8.1 1.8.5 2.2.8zm31.7 1.3c-.7 2.1-1.2 1.9-1-.4 0-1.1.5-1.8.9-1.5.4.3.5 1.1.1 1.9zm14.2-1.5c.3.5.1 1-.4 1-.6 0-1.1-.5-1.1-1 0-.6.2-1 .4-1 .3 0 .8.4 1.1 1zm25.8 1.5c-.7 2.1-1.2 1.9-1-.4 0-1.1.5-1.8.9-1.5.4.3.5 1.1.1 1.9zm29.7-1.9c0 .8-1.9 1.3-2.4.6-.3-.5.1-.9.9-.9s1.5.2 1.5.3zm-155.4 3c.1.9 0 1.3-.4 1-.3-.4-.7-1.4-.8-2.2-.1-.9 0-1.3.4-1 .3.4.7 1.4.8 2.2zm66.4-.6c0 .5-.5 1-1.1 1-.5 0-.7-.5-.4-1 .3-.6.8-1 1.1-1 .2 0 .4.4.4 1zm-80 1.6c0 .8-1.9 1.3-2.4.6-.3-.5.1-.9.9-.9s1.5.2 1.5.3zm44.4.2c.3.5-.1.9-.9.9s-1.2-.4-.9-.9c.3-.4.7-.8.9-.8.2 0 .6.4.9.8zm19.3.7c0 .8-.4 1.2-.9.9-.5-.3-.6-1-.3-1.5.9-1.3 1.2-1.1 1.2.6zm12 0c0 .8-.4 1.2-.9.9-.5-.3-.6-1-.3-1.5.9-1.3 1.2-1.1 1.2.6zm20.3-.9c0 .8-1.9 1.3-2.4.6-.3-.5.1-.9.9-.9s1.5.2 1.5.3zm11.6.6c.3.4-.1.5-1 .4-.8-.1-1.8-.5-2.2-.8-.3-.4.1-.5 1-.4.8.1 1.8.5 2.2.8zm11.9-.3c.3.5.2 1.2-.3 1.5-.5.3-.9-.1-.9-.9 0-1.7.3-1.9 1.2-.6zm28.9-.1c.3.5-.1.9-.9.9s-1.2-.4-.9-.9c.3-.4.7-.8.9-.8.2 0 .6.4.9.8zm15 .4c-.3.4-1.1.5-1.9.1-2.1-.7-1.9-1.2.4-1 1.1 0 1.8.5 1.5.9zM355 280c0 .5-.2 1-.4 1-.3 0-.8-.5-1.1-1-.3-.6-.1-1 .4-1 .6 0 1.1.4 1.1 1zm43.6.5c-.1.8-.5 1.7-.8 2.1-.5.4-.4-1.6.1-3.4.3-.9.9.1.7 1.3zm6.9-.6c-.9.8-3.6 1-3 .2.2-.4 1.1-.8 2-.8.8 0 1.3.3 1 .6zm29.1.6c-.1.8-.5 1.7-.8 2.1-.5.4-.4-1.6.1-3.4.3-.9.9.1.7 1.3zm15.9.7c.5-.4.5-.1.1.6-.6 1-1.1 1-2.2.1-.8-.6-1.4-1.4-1.4-1.6 0-.3.6 0 1.3.6.8.6 1.8.7 2.2.3zm-108 .7c-.9.8-3.6 1-3 .2.2-.4 1.1-.8 2-.8.8 0 1.3.3 1 .6zm19.9-.1c.3.5-.1.9-.9.9s-1.2-.4-.9-.9c.3-.4.7-.8.9-.8.2 0 .6.4.9.8zm8 0c.3.5-.1.9-.9.9s-1.2-.4-.9-.9c.3-.4.7-.8.9-.8.2 0 .6.4.9.8zm14 .8c.3.8.2 1.2-.4.9-.6-.3-1-1-1-1.6 0-1.4.7-1.1 1.4.7zm6-.8c.2.4-.5.9-1.7.9-1.7.2-1.9 0-.7-.7 1.8-1.2 1.8-1.2 2.4-.2zm29.6-.2c0 .8-1.9 1.3-2.4.6-.3-.5.1-.9.9-.9s1.5.2 1.5.3zm10.3 1.9c-.7 2.1-1.2 1.9-1-.4 0-1.1.5-1.8.9-1.5.4.3.5 1.1.1 1.9zm25.7-1.9c0 .8-1.9 1.3-2.4.6-.3-.5.1-.9.9-.9s1.5.2 1.5.3zm36 0c0 .8-1.9 1.3-2.4.6-.3-.5.1-.9.9-.9s1.5.2 1.5.3zm-51.4 1.9c-.1.8-.5 1.7-.8 2.1-.5.4-.4-1.6.1-3.4.3-.9.9.1.7 1.3zm-74 1c-.1.8-.5 1.7-.8 2.1-.5.4-.4-1.6.1-3.4.3-.9.9.1.7 1.3zm8 0c-.1.8-.5 1.7-.8 2.1-.5.4-.4-1.6.1-3.4.3-.9.9.1.7 1.3zm84 0c-.1.8-.5 1.7-.8 2.1-.5.4-.4-1.6.1-3.4.3-.9.9.1.7 1.3zm8 0c-.1.8-.5 1.7-.8 2.1-.5.4-.4-1.6.1-3.4.3-.9.9.1.7 1.3zm11.9-.5c.3.5.1 1-.4 1-.6 0-1.1-.5-1.1-1 0-.6.2-1 .4-1 .3 0 .8.4 1.1 1zm-127.8 2.5c0 .8-.4 1.2-.9.9-.5-.3-.6-1-.3-1.5.9-1.3 1.2-1.1 1.2.6zm35.9 0c-.1.8-.5 1.7-.8 2.1-.5.4-.4-1.6.1-3.4.3-.9.9.1.7 1.3zm10.4-1c0 .7-3 1.3-3.4.7-.3-.4.4-.9 1.5-.9 1-.1 1.9 0 1.9.2zm12-.1c0 .3-.4.8-1 1.1-.5.3-1 .1-1-.4 0-.6.5-1.1 1-1.1.6 0 1 .2 1 .4zm17.5.5c-.9.8-3.6 1-3 .2.2-.4 1.1-.8 2-.8.8 0 1.3.3 1 .6zm59.9-.1c.3.5-.1.9-.9.9s-1.2-.4-.9-.9c.3-.4.7-.8.9-.8.2 0 .6.4.9.8zm-48.1 2.7c.4.8.3 1.6-.1 1.9-.4.3-.9-.4-.9-1.5-.2-2.3.3-2.5 1-.4zm8.7-1.1c0 .3-.4.8-1 1.1-.5.3-1 .1-1-.4 0-.6.5-1.1 1-1.1.6 0 1 .2 1 .4zm-52.5 1.5c.3.5.2 1.2-.3 1.5-.5.3-.9-.1-.9-.9 0-1.7.3-1.9 1.2-.6zm88 0c.3.5.2 1.2-.3 1.5-.5.3-.9-.1-.9-.9 0-1.7.3-1.9 1.2-.6zm-146 1c-.9.8-3.6 1-3 .2.2-.4 1.1-.8 2-.8.8 0 1.3.3 1 .6zm46.1 1.7c.1.9 0 1.3-.4 1-.3-.4-.7-1.4-.8-2.2-.1-.9 0-1.3.4-1 .3.4.7 1.4.8 2.2zm36.4-2c0 .8-1.9 1.3-2.4.6-.3-.5.1-.9.9-.9s1.5.2 1.5.3zm5 0c0 .8-1.9 1.3-2.4.6-.3-.5.1-.9.9-.9s1.5.2 1.5.3zm6.5.3c-.9.8-3.6 1-3 .2.2-.4 1.1-.8 2-.8.8 0 1.3.3 1 .6zm-99.9 3.7c.1.9 0 1.3-.4 1-.3-.4-.7-1.4-.8-2.2-.1-.9 0-1.3.4-1 .3.4.7 1.4.8 2.2zm84 0c.1.9 0 1.3-.4 1-.3-.4-.7-1.4-.8-2.2-.1-.9 0-1.3.4-1 .3.4.7 1.4.8 2.2zm56.4-2.2c0 .3-.4.8-1 1.1-.5.3-1 .1-1-.4 0-.6.5-1.1 1-1.1.6 0 1 .2 1 .4zm-80.3 2.1c0 .8-.4 1.2-.9.9-.5-.3-.6-1-.3-1.5.9-1.3 1.2-1.1 1.2.6zm-11.7.1c0 .8-1.9 1.3-2.4.6-.3-.5.1-.9.9-.9s1.5.2 1.5.3zm25.5.3c-.9.8-3.6 1-3 .2.2-.4 1.1-.8 2-.8.8 0 1.3.3 1 .6zm32.1.3c.3.4-.1.5-1 .4-.8-.1-1.8-.5-2.2-.8-.3-.4.1-.5 1-.4.8.1 1.8.5 2.2.8zm43.5.5c1.2 1.6 1.2 1.7-.2.6-.9-.7-2-.9-2.4-.5-.5.4-.5.1-.1-.6.9-1.6 1.1-1.5 2.7.5zm-113.8 1.8c.4.8.3 1.6-.1 1.9-.4.3-.9-.4-.9-1.5-.2-2.3.3-2.5 1-.4zm4.4.4c0 1.1-.5 1.8-.9 1.5-.4-.3-.5-1.1-.1-1.9.7-2.1 1.2-1.9 1 .4zm79.9.7c.1.9 0 1.3-.4 1-.3-.4-.7-1.4-.8-2.2-.1-.9 0-1.3.4-1 .3.4.7 1.4.8 2.2zm22.8-1.8c.3.5-.1.9-.9.9s-1.2-.4-.9-.9c.3-.4.7-.8.9-.8.2 0 .6.4.9.8zm-142.9 2.1c.3.5.2 1.2-.3 1.5-.5.3-.9-.1-.9-.9 0-1.7.3-1.9 1.2-.6zm20.9-.1c.3.5-.1.9-.9.9s-1.2-.4-.9-.9c.3-.4.7-.8.9-.8.2 0 .6.4.9.8zm7.2.4c.3.4-.1.5-1 .4-.8-.1-1.8-.5-2.2-.8-.3-.4.1-.5 1-.4.8.1 1.8.5 2.2.8zm21.9-.3c-.9.8-3.6 1-3 .2.2-.4 1.1-.8 2-.8.8 0 1.3.3 1 .6zm6 0c.3.5.2 1.2-.3 1.5-.5.3-.9-.1-.9-.9 0-1.7.3-1.9 1.2-.6zm10.5.1c0 .5-.5 1-1.1 1-.5 0-.7-.5-.4-1 .3-.6.8-1 1.1-1 .2 0 .4.4.4 1zm13.6 1.6c.1.9 0 1.3-.4 1-.3-.4-.7-1.4-.8-2.2-.1-.9 0-1.3.4-1 .3.4.7 1.4.8 2.2zm49.9-1.7c-.9.8-3.6 1-3 .2.2-.4 1.1-.8 2-.8.8 0 1.3.3 1 .6zm-113.8 3c0 1.1-.5 1.8-.9 1.5-.4-.3-.5-1.1-.1-1.9.7-2.1 1.2-1.9 1 .4zm-20 .8c-.4.3-.1 1.3.6 2.2 1.1 1.4 1 1.4-.5.2-1.6-1.2-1.6-3.1-.1-3.1.4 0 .3.3 0 .7zm27.9.8c-.1.8-.5 1.7-.8 2.1-.5.4-.4-1.6.1-3.4.3-.9.9.1.7 1.3zm10-.3c.3.4-.1.5-1 .4-.8-.1-1.8-.5-2.2-.8-.3-.4.1-.5 1-.4.8.1 1.8.5 2.2.8zm17.7 1.3c-.7 2.1-1.2 1.9-1-.4 0-1.1.5-1.8.9-1.5.4.3.5 1.1.1 1.9zm24.4-1c0 .8-.4 1.2-.9.9-.5-.3-.6-1-.3-1.5.9-1.3 1.2-1.1 1.2.6zm11.7-.7c.3.5-.1.9-.9.9s-1.2-.4-.9-.9c.3-.4.7-.8.9-.8.2 0 .6.4.9.8zm12.2.4c.3.4-.1.5-1 .4-.8-.1-1.8-.5-2.2-.8-.3-.4.1-.5 1-.4.8.1 1.8.5 2.2.8zm23.9-.3c-.9.8-3.6 1-3 .2.2-.4 1.1-.8 2-.8.8 0 1.3.3 1 .6zm7.9 0c.3.5-.2 1.5-1.2 2.2-1.5 1.2-1.6 1.2-.5-.2.7-.9 1-1.9.6-2.2-.3-.4-.4-.7 0-.7.3 0 .8.4 1.1.9zm-75.8 2.6c-.1.8-.5 1.7-.8 2.1-.5.4-.4-1.6.1-3.4.3-.9.9.1.7 1.3zm52.9-.5c.3.6-.1.7-.9.4-1.8-.7-2.1-1.4-.7-1.4.6 0 1.3.4 1.6 1zm7.1.5c-.1.8-.5 1.7-.8 2.1-.5.4-.4-1.6.1-3.4.3-.9.9.1.7 1.3zm-96 3.1c.1.9 0 1.3-.4 1-.3-.4-.7-1.4-.8-2.2-.1-.9 0-1.3.4-1 .3.4.7 1.4.8 2.2zM405 306c0 .5-.5 1-1.1 1-.5 0-.7-.5-.4-1 .3-.6.8-1 1.1-1 .2 0 .4.4.4 1zm17.5-.1c-.9.8-3.6 1-3 .2.2-.4 1.1-.8 2-.8.8 0 1.3.3 1 .6zm34 .1c.3.5.1 1-.4 1-.6 0-1.1-.5-1.1-1 0-.6.2-1 .4-1 .3 0 .8.4 1.1 1zm-63.9 1.5c-.1.8-.5 1.7-.8 2.1-.5.4-.4-1.6.1-3.4.3-.9.9.1.7 1.3zm-61.9 1.4c0 1.1-.5 1.8-.9 1.5-.4-.3-.5-1.1-.1-1.9.7-2.1 1.2-1.9 1 .4zm-4 1.6c0 .8-.4 1.2-.9.9-.5-.3-.6-1-.3-1.5.9-1.3 1.2-1.1 1.2.6zm20.3-.9c0 .8-1.9 1.3-2.4.6-.3-.5.1-.9.9-.9s1.5.2 1.5.3zm51.6.9c-.1.8-.5 1.7-.8 2.1-.5.4-.4-1.6.1-3.4.3-.9.9.1.7 1.3zm14.4-1.1c0 .3-.4.8-1 1.1-.5.3-1 .1-1-.4 0-.6.5-1.1 1-1.1.6 0 1 .2 1 .4zm15.5.5c-.9.8-3.6 1-3 .2.2-.4 1.1-.8 2-.8.8 0 1.3.3 1 .6zm8.5.1c0 .5-.2 1-.4 1-.3 0-.8-.5-1.1-1-.3-.6-.1-1 .4-1 .6 0 1.1.4 1.1 1zm7.6.2c.3.4-.1.5-1 .4-.8-.1-1.8-.5-2.2-.8-.3-.4.1-.5 1-.4.8.1 1.8.5 2.2.8zM339 312c0 .5-.5 1-1.1 1-.5 0-.7-.5-.4-1 .3-.6.8-1 1.1-1 .2 0 .4.4.4 1zm94 .4c0 .2-.6.9-1.4 1.5-1.1.9-1.6.9-2.2 0-.4-.7-.3-.9.4-.5.6.3 1.3.2 1.7-.4.6-1 1.5-1.4 1.5-.6zm-126.3 2.8c.2 1.7 0 1.9-.7.8-.5-.8-.6-1.8-.4-2.2.8-1.2 1-1 1.1 1.4zm17.3-1.6c0 .8-1.9 1.3-2.4.6-.3-.5.1-.9.9-.9s1.5.2 1.5.3zm10.3 1.9c-.7 2.1-1.2 1.9-1-.4 0-1.1.5-1.8.9-1.5.4.3.5 1.1.1 1.9zm32.3-1.3c.3.4-.1.5-1 .4-.8-.1-1.8-.5-2.2-.8-.3-.4.1-.5 1-.4.8.1 1.8.5 2.2.8zm5.9-.3c-.9.8-3.6 1-3 .2.2-.4 1.1-.8 2-.8.8 0 1.3.3 1 .6zm38.5-.3c0 .8-1.9 1.3-2.4.6-.3-.5.1-.9.9-.9s1.5.2 1.5.3zm29 0c0 .8-1.9 1.3-2.4.6-.3-.5.1-.9.9-.9s1.5.2 1.5.3zm-95.4 1.9c-.1.8-.5 1.7-.8 2.1-.5.4-.4-1.6.1-3.4.3-.9.9.1.7 1.3zm42.4.5c0 .5-.5 1-1.1 1-.5 0-.7-.5-.4-1 .3-.6.8-1 1.1-1 .2 0 .4.4.4 1zm11.6 1.6c.1.9 0 1.3-.4 1-.3-.4-.7-1.4-.8-2.2-.1-.9 0-1.3.4-1 .3.4.7 1.4.8 2.2zm8 0c.1.9 0 1.3-.4 1-.3-.4-.7-1.4-.8-2.2-.1-.9 0-1.3.4-1 .3.4.7 1.4.8 2.2zm15.9-1.6c.3.5.1 1-.4 1-.6 0-1.1-.5-1.1-1 0-.6.2-1 .4-1 .3 0 .8.4 1.1 1zm20.5 0c0 .5-.5 1-1.1 1-.5 0-.7-.5-.4-1 .3-.6.8-1 1.1-1 .2 0 .4.4.4 1zm-130.4 2.2c.3.4-.1.5-1 .4-.8-.1-1.8-.5-2.2-.8-.3-.4.1-.5 1-.4.8.1 1.8.5 2.2.8zm17.9-.3c-.9.8-3.6 1-3 .2.2-.4 1.1-.8 2-.8.8 0 1.3.3 1 .6zm32.2.6c0 .8-.4 1.2-.9.9-.5-.3-.6-1-.3-1.5.9-1.3 1.2-1.1 1.2.6zm11.8-.6c.3.5.2 1.2-.3 1.5-.5.3-.9-.1-.9-.9 0-1.7.3-1.9 1.2-.6zm-22.4 2.8c1.3 1.7 1.3 1.7-.6.3-1.1-.8-2.2-1.6-2.4-1.7-.2-.2 0-.3.6-.3s1.7.8 2.4 1.7zm30.4-.7c.3.5.1 1-.4 1-.6 0-1.1-.5-1.1-1 0-.6.2-1 .4-1 .3 0 .8.4 1.1 1zm-47.8 1.5c0 .8-.4 1.2-.9.9-.5-.3-.6-1-.3-1.5.9-1.3 1.2-1.1 1.2.6zm-18.2.5c.3.5.1 1-.4 1-.6 0-1.1-.5-1.1-1 0-.6.2-1 .4-1 .3 0 .8.4 1.1 1zm46.1.2c.3.4-.1.5-1 .4-.8-.1-1.8-.5-2.2-.8-.3-.4.1-.5 1-.4.8.1 1.8.5 2.2.8zm48 1.4c.1.9 0 1.3-.4 1-.3-.4-.7-1.4-.8-2.2-.1-.9 0-1.3.4-1 .3.4.7 1.4.8 2.2zm16 0c.1.9 0 1.3-.4 1-.3-.4-.7-1.4-.8-2.2-.1-.9 0-1.3.4-1 .3.4.7 1.4.8 2.2zm7.9-1.7c.3.5.2 1.2-.3 1.5-.5.3-.9-.1-.9-.9 0-1.7.3-1.9 1.2-.6zm-58 1c.3.5.2 1.2-.3 1.5-.5.3-.9-.1-.9-.9 0-1.7.3-1.9 1.2-.6zm-77.9 1.6c-.1.8-.5 1.7-.8 2.1-.5.4-.4-1.6.1-3.4.3-.9.9.1.7 1.3zm40 0c-.1.8-.5 1.7-.8 2.1-.5.4-.4-1.6.1-3.4.3-.9.9.1.7 1.3zm28 0c-.1.8-.5 1.7-.8 2.1-.5.4-.4-1.6.1-3.4.3-.9.9.1.7 1.3zm24.4-1.1c0 .3-.4.8-1 1.1-.5.3-1 .1-1-.4 0-.6.5-1.1 1-1.1.6 0 1 .2 1 .4zm-96.5 2.5c.3.5.2 1.2-.3 1.5-.5.3-.9-.1-.9-.9 0-1.7.3-1.9 1.2-.6zm16.1.3c.3.4-.1.5-1 .4-.8-.1-1.8-.5-2.2-.8-.3-.4.1-.5 1-.4.8.1 1.8.5 2.2.8zm11.9-.3c.3.5.2 1.2-.3 1.5-.5.3-.9-.1-.9-.9 0-1.7.3-1.9 1.2-.6zm26.5.1c0 .5-.2 1-.4 1-.3 0-.8-.5-1.1-1-.3-.6-.1-1 .4-1 .6 0 1.1.4 1.1 1zm51.1.7c1.2 1.6 1.2 1.7-.2.6-.9-.7-2-.9-2.4-.5-.5.4-.5.1-.1-.6.9-1.6 1.1-1.5 2.7.5zm7.3-.9c.3.5-.1.9-.9.9s-1.2-.4-.9-.9c.3-.4.7-.8.9-.8.2 0 .6.4.9.8zm16 0c.3.5-.1.9-.9.9s-1.2-.4-.9-.9c.3-.4.7-.8.9-.8.2 0 .6.4.9.8zM371 328c0 .5-.2 1-.4 1-.3 0-.8-.5-1.1-1-.3-.6-.1-1 .4-1 .6 0 1.1.4 1.1 1zm-68.4 3.6c.1.9 0 1.3-.4 1-.3-.4-.7-1.4-.8-2.2-.1-.9 0-1.3.4-1 .3.4.7 1.4.8 2.2zm4.4-2c0 .8-1.9 1.3-2.4.6-.3-.5.1-.9.9-.9s1.5.2 1.5.3zm5 0c0 .8-1.9 1.3-2.4.6-.3-.5.1-.9.9-.9s1.5.2 1.5.3zm30.6.9c-.1.8-.5 1.7-.8 2.1-.5.4-.4-1.6.1-3.4.3-.9.9.1.7 1.3zm20.1.7c.2 1.7 0 1.9-.7.8-.5-.8-.6-1.8-.4-2.2.8-1.2 1-1 1.1 1.4zm15.7-1.4c.3.5-.1.9-.9.9s-1.2-.4-.9-.9c.3-.4.7-.8.9-.8.2 0 .6.4.9.8zm18.2.4c.3.4-.1.5-1 .4-.8-.1-1.8-.5-2.2-.8-.3-.4.1-.5 1-.4.8.1 1.8.5 2.2.8zm8.4-.2c0 .5-.5 1-1.1 1-.5 0-.7-.5-.4-1 .3-.6.8-1 1.1-1 .2 0 .4.4.4 1zm15.7.5c0 .8-.4 1.2-.9.9-.5-.3-.6-1-.3-1.5.9-1.3 1.2-1.1 1.2.6zm-68.1 2.1c.1.9 0 1.3-.4 1-.3-.4-.7-1.4-.8-2.2-.1-.9 0-1.3.4-1 .3.4.7 1.4.8 2.2zm-38-.1c-.1.8-.5 1.7-.8 2.1-.5.4-.4-1.6.1-3.4.3-.9.9.1.7 1.3zm8 0c-.1.8-.5 1.7-.8 2.1-.5.4-.4-1.6.1-3.4.3-.9.9.1.7 1.3zm11.9-.5c.3.5.1 1-.4 1-.6 0-1.1-.5-1.1-1 0-.6.2-1 .4-1 .3 0 .8.4 1.1 1zm48.1.5c-.1.8-.5 1.7-.8 2.1-.5.4-.4-1.6.1-3.4.3-.9.9.1.7 1.3zm34.4-.5c0 .5-.5 1-1.1 1-.5 0-.7-.5-.4-1 .3-.6.8-1 1.1-1 .2 0 .4.4.4 1zm-48 .4c0 .2-.6.9-1.4 1.5-1.1.9-1.6.9-2.2 0-.4-.7-.3-.9.4-.5.6.3 1.3.2 1.7-.4.6-1 1.5-1.4 1.5-.6zm-70.6 1.8c-.3.4-1.1.5-1.9.1-2.1-.7-1.9-1.2.4-1 1.1 0 1.8.5 1.5.9zm48-.3c.3.5-.2 1.5-1.2 2.2-1.5 1.2-1.6 1.2-.5-.2.7-.9 1-1.9.6-2.2-.3-.4-.4-.7 0-.7.3 0 .8.4 1.1.9zm44.2.3c.3.4-.1.5-1 .4-.8-.1-1.8-.5-2.2-.8-.3-.4.1-.5 1-.4.8.1 1.8.5 2.2.8zm22.4-.8c0 .3-.4.8-1 1.1-.5.3-1 .1-1-.4 0-.6.5-1.1 1-1.1.6 0 1 .2 1 .4zm-83.6 2.4c.3.5-.1.9-.9.9s-1.5-.4-1.5-.9c0-.4.4-.8.9-.8.6 0 1.2.4 1.5.8zm29.7.5c-.6.8-.7 1.8-.3 2.2.4.5.1.5-.6.1-1-.6-1-1.1-.1-2.2.6-.8 1.4-1.4 1.6-1.4.3 0 0 .6-.6 1.3zm-60.7 1.5c.2.4-.5.9-1.7.9-1.7.2-1.9 0-.7-.7 1.8-1.2 1.8-1.2 2.4-.2zm16.2.7c-.1.8-.5 1.7-.8 2.1-.5.4-.4-1.6.1-3.4.3-.9.9.1.7 1.3zm8.1.7c.2 1.7 0 1.9-.7.8-.5-.8-.6-1.8-.4-2.2.8-1.2 1-1 1.1 1.4zm12-.7c0 .8-.4 1.2-.9.9-.5-.3-.6-1-.3-1.5.9-1.3 1.2-1.1 1.2.6zm48 0c0 .8-.4 1.2-.9.9-.5-.3-.6-1-.3-1.5.9-1.3 1.2-1.1 1.2.6zm4.3-.9c0 .8-1.9 1.3-2.4.6-.3-.5.1-.9.9-.9s1.5.2 1.5.3zm10 .4c0 .5-.5 1-1.1 1-.5 0-.7-.5-.4-1 .3-.6.8-1 1.1-1 .2 0 .4.4.4 1zm12.4-.2c.3.5-.1.9-.9.9s-1.2-.4-.9-.9c.3-.4.7-.8.9-.8.2 0 .6.4.9.8zm-56.8 2.8c.1.9 0 1.3-.4 1-.3-.4-.7-1.4-.8-2.2-.1-.9 0-1.3.4-1 .3.4.7 1.4.8 2.2zm-10.1-.6c.3.5.1 1-.4 1-.6 0-1.1-.5-1.1-1 0-.6.2-1 .4-1 .3 0 .8.4 1.1 1zm28.5 0c0 .5-.2 1-.4 1-.3 0-.8-.5-1.1-1-.3-.6-.1-1 .4-1 .6 0 1.1.4 1.1 1zm-88.5 1.9c.3.5.2 1.2-.3 1.5-.5.3-.9-.1-.9-.9 0-1.7.3-1.9 1.2-.6zm37.5-.3c0 .8-1.9 1.3-2.4.6-.3-.5.1-.9.9-.9s1.5.2 1.5.3zm8 0c0 .8-1.9 1.3-2.4.6-.3-.5.1-.9.9-.9s1.5.2 1.5.3zm18.5.3c.3.5.2 1.2-.3 1.5-.5.3-.9-.1-.9-.9 0-1.7.3-1.9 1.2-.6zm-11.9 3.7c.1.9 0 1.3-.4 1-.3-.4-.7-1.4-.8-2.2-.1-.9 0-1.3.4-1 .3.4.7 1.4.8 2.2zm48 0c.1.9 0 1.3-.4 1-.3-.4-.7-1.4-.8-2.2-.1-.9 0-1.3.4-1 .3.4.7 1.4.8 2.2zm-88.1-.7c.3.5.2 1.2-.3 1.5-.5.3-.9-.1-.9-.9 0-1.7.3-1.9 1.2-.6zm-8 1c-.9.8-3.6 1-3 .2.2-.4 1.1-.8 2-.8.8 0 1.3.3 1 .6zm12.1.6c-.1.8-.5 1.7-.8 2.1-.5.4-.4-1.6.1-3.4.3-.9.9.1.7 1.3zm40.1.7c.2 1.7 0 1.9-.7.8-.5-.8-.6-1.8-.4-2.2.8-1.2 1-1 1.1 1.4zm12.3-1.6c0 .8-1.9 1.3-2.4.6-.3-.5.1-.9.9-.9s1.5.2 1.5.3zm6 .9c0 .2-.9.3-1.9.2-1.1 0-1.8-.5-1.5-.9.4-.6 3.4 0 3.4.7zm9.7 0c0 .8-.4 1.2-.9.9-.5-.3-.6-1-.3-1.5.9-1.3 1.2-1.1 1.2.6zm-38.1 2.1c.1.9 0 1.3-.4 1-.3-.4-.7-1.4-.8-2.2-.1-.9 0-1.3.4-1 .3.4.7 1.4.8 2.2zm48 0c.1.9 0 1.3-.4 1-.3-.4-.7-1.4-.8-2.2-.1-.9 0-1.3.4-1 .3.4.7 1.4.8 2.2zM275 348c0 .5-.2 1-.4 1-.3 0-.8-.5-1.1-1-.3-.6-.1-1 .4-1 .6 0 1.1.4 1.1 1zm17.6 2.2c.3.4-.1.5-1 .4-.8-.1-1.8-.5-2.2-.8-.3-.4.1-.5 1-.4.8.1 1.8.5 2.2.8zm12.4-.7c0 .7-3 1.3-3.4.7-.3-.4.4-.9 1.5-.9 1-.1 1.9 0 1.9.2zm53.5.4c.3.5.2 1.2-.3 1.5-.5.3-.9-.1-.9-.9 0-1.7.3-1.9 1.2-.6zm12 0c.3.5.2 1.2-.3 1.5-.5.3-.9-.1-.9-.9 0-1.7.3-1.9 1.2-.6zm13.6 1.4c-1 .9-1.1.8-.5-.6.3-1 .9-1.5 1.2-1.2.3.3 0 1.1-.7 1.8zm-113.1.1c0 .3-.4.8-1 1.1-.5.3-1 .1-1-.4 0-.6.5-1.1 1-1.1.6 0 1 .2 1 .4zm52 .6c0 .5-.2 1-.4 1-.3 0-.8-.5-1.1-1-.3-.6-.1-1 .4-1 .6 0 1.1.4 1.1 1zm7.7.9c0 1.1-.5 1.8-.9 1.5-.4-.3-.5-1.1-.1-1.9.7-2.1 1.2-1.9 1 .4zm49.8-.1c-.3.3-1.1 0-1.8-.7-.9-1-.8-1.1.6-.5 1 .3 1.5.9 1.2 1.2zm-83.9 1.4c.3.4-.1.5-1 .4-.8-.1-1.8-.5-2.2-.8-.3-.4.1-.5 1-.4.8.1 1.8.5 2.2.8zm6.4-.6c0 .8-1.9 1.3-2.4.6-.3-.5.1-.9.9-.9s1.5.2 1.5.3zm5.5.3c-.9.8-3.6 1-3 .2.2-.4 1.1-.8 2-.8.8 0 1.3.3 1 .6zm45.9-.1c.3.5-.1.9-.9.9s-1.2-.4-.9-.9c.3-.4.7-.8.9-.8.2 0 .6.4.9.8zm12.2.4c.3.4-.1.5-1 .4-.8-.1-1.8-.5-2.2-.8-.3-.4.1-.5 1-.4.8.1 1.8.5 2.2.8zm-80.1 1.8c.3.5.1 1-.4 1-.6 0-1.1-.5-1.1-1 0-.6.2-1 .4-1 .3 0 .8.4 1.1 1zm72.1.5c-.1.8-.5 1.7-.8 2.1-.5.4-.4-1.6.1-3.4.3-.9.9.1.7 1.3zm-92.1 1.4c.3.5.2 1.2-.3 1.5-.5.3-.9-.1-.9-.9 0-1.7.3-1.9 1.2-.6zm10 0c-.9.8-3.6 1-3 .2.2-.4 1.1-.8 2-.8.8 0 1.3.3 1 .6zm34 0c.3.5.2 1.2-.3 1.5-.5.3-.9-.1-.9-.9 0-1.7.3-1.9 1.2-.6zm24 0c-.9.8-3.6 1-3 .2.2-.4 1.1-.8 2-.8.8 0 1.3.3 1 .6zm28.2.6c0 .8-.4 1.2-.9.9-.5-.3-.6-1-.3-1.5.9-1.3 1.2-1.1 1.2.6zm-69.1 1.7c.3.4-.1.5-1 .4-.8-.1-1.8-.5-2.2-.8-.3-.4.1-.5 1-.4.8.1 1.8.5 2.2.8zm23.8-.4c.3.5-.1.9-.9.9s-1.2-.4-.9-.9c.3-.4.7-.8.9-.8.2 0 .6.4.9.8zm-38.7 1.7c0 .8-.4 1.2-.9.9-.5-.3-.6-1-.3-1.5.9-1.3 1.2-1.1 1.2.6zm-7.7.1c0 .8-1.9 1.3-2.4.6-.3-.5.1-.9.9-.9s1.5.2 1.5.3zm69.5.3c-.9.8-3.6 1-3 .2.2-.4 1.1-.8 2-.8.8 0 1.3.3 1 .6zm14.1.6c-.1.8-.5 1.7-.8 2.1-.5.4-.4-1.6.1-3.4.3-.9.9.1.7 1.3zM259 364c0 .5-.2 1-.4 1-.3 0-.8-.5-1.1-1-.3-.6-.1-1 .4-1 .6 0 1.1.4 1.1 1zm24 0c0 .5-.2 1-.4 1-.3 0-.8-.5-1.1-1-.3-.6-.1-1 .4-1 .6 0 1.1.4 1.1 1zm78 .4c0 .2-.6.9-1.4 1.5-1.1.9-1.6.9-2.2 0-.4-.7-.3-.9.4-.5.6.3 1.3.2 1.7-.4.6-1 1.5-1.4 1.5-.6zm-70.6 1.4c.3.5-.1.9-.9.9s-1.2-.4-.9-.9c.3-.4.7-.8.9-.8.2 0 .6.4.9.8zm10.6.2c0 .5-.2 1-.4 1-.3 0-.8-.5-1.1-1-.3-.6-.1-1 .4-1 .6 0 1.1.4 1.1 1zm12 0c0 .5-.2 1-.4 1-.3 0-.8-.5-1.1-1-.3-.6-.1-1 .4-1 .6 0 1.1.4 1.1 1zm29.5-.1c.3.5.2 1.2-.3 1.5-.5.3-.9-.1-.9-.9 0-1.7.3-1.9 1.2-.6zm-35.4 2.4c-.6.8-.7 1.8-.3 2.2.4.5.1.5-.6.1-1-.6-1-1.1-.1-2.2.6-.8 1.4-1.4 1.6-1.4.3 0 0 .6-.6 1.3zm15.5 1.3c.1.9 0 1.3-.4 1-.3-.4-.7-1.4-.8-2.2-.1-.9 0-1.3.4-1 .3.4.7 1.4.8 2.2zm27.9-1.6c.3.5.1 1-.4 1-.6 0-1.1-.5-1.1-1 0-.6.2-1 .4-1 .3 0 .8.4 1.1 1zm-92 .9c.3.5.2 1.2-.3 1.5-.5.3-.9-.1-.9-.9 0-1.7.3-1.9 1.2-.6zm12.2.6c0 .8-.4 1.2-.9.9-.5-.3-.6-1-.3-1.5.9-1.3 1.2-1.1 1.2.6zm7.8.4c-.9.8-3.6 1-3 .2.2-.4 1.1-.8 2-.8.8 0 1.3.3 1 .6zm16.5-.3c0 .8-1.9 1.3-2.4.6-.3-.5.1-.9.9-.9s1.5.2 1.5.3zm21.5.3c-.9.8-3.6 1-3 .2.2-.4 1.1-.8 2-.8.8 0 1.3.3 1 .6zm26.1.3c.3.4-.1.5-1 .4-.8-.1-1.8-.5-2.2-.8-.3-.4.1-.5 1-.4.8.1 1.8.5 2.2.8zM251 372c0 .5-.5 1-1.1 1-.5 0-.7-.5-.4-1 .3-.6.8-1 1.1-1 .2 0 .4.4.4 1zm7.5 1.9c.3.5.2 1.2-.3 1.5-.5.3-.9-.1-.9-.9 0-1.7.3-1.9 1.2-.6zm26 0c-.9.8-3.6 1-3 .2.2-.4 1.1-.8 2-.8.8 0 1.3.3 1 .6zm25.9.3c-.3.4-1.1.5-1.9.1-2.1-.7-1.9-1.2.4-1 1.1 0 1.8.5 1.5.9zm8.2 1.4c.1.9 0 1.3-.4 1-.3-.4-.7-1.4-.8-2.2-.1-.9 0-1.3.4-1 .3.4.7 1.4.8 2.2zm7.9-1.7c-.9.8-3.6 1-3 .2.2-.4 1.1-.8 2-.8.8 0 1.3.3 1 .6zm7.8 1.6c-.7 2.1-1.2 1.9-1-.4 0-1.1.5-1.8.9-1.5.4.3.5 1.1.1 1.9zm4.4-.3c.2 1.7 0 1.9-.7.8-.5-.8-.6-1.8-.4-2.2.8-1.2 1-1 1.1 1.4zm-33.7 1.2c0 .2-.6.9-1.4 1.5-1.1.9-1.6.9-2.2 0-.4-.7-.3-.9.4-.5.6.3 1.3.2 1.7-.4.6-1 1.5-1.4 1.5-.6zm-14.5 1.7c.3.3-.6.5-1.9.5-1.4-.1-2.8-.4-3.1-.7-.3-.3.6-.5 1.9-.5 1.4.1 2.8.4 3.1.7zM251 380c0 .5-.2 1-.4 1-.3 0-.8-.5-1.1-1-.3-.6-.1-1 .4-1 .6 0 1.1.4 1.1 1zm7.6.5c-.1.8-.5 1.7-.8 2.1-.5.4-.4-1.6.1-3.4.3-.9.9.1.7 1.3zm12 1.1c.1.9 0 1.3-.4 1-.3-.4-.7-1.4-.8-2.2-.1-.9 0-1.3.4-1 .3.4.7 1.4.8 2.2zm7.9-1.6c.3.5.1 1-.4 1-.6 0-1.1-.5-1.1-1 0-.6.2-1 .4-1 .3 0 .8.4 1.1 1zm15.8.5c.4.8.3 1.6-.1 1.9-.4.3-.9-.4-.9-1.5-.2-2.3.3-2.5 1-.4zM265 384c0 .5-.4 1-1 1-.5 0-1-.5-1-1 0-.6.5-1 1-1 .6 0 1 .4 1 1zm60-.4c0 .8-1.9 1.3-2.4.6-.3-.5.1-.9.9-.9s1.5.2 1.5.3zm-78.5 2.3c-.9.8-3.6 1-3 .2.2-.4 1.1-.8 2-.8.8 0 1.3.3 1 .6zm24.1.6c-.1.8-.5 1.7-.8 2.1-.5.4-.4-1.6.1-3.4.3-.9.9.1.7 1.3zm8 0c-.1.8-.5 1.7-.8 2.1-.5.4-.4-1.6.1-3.4.3-.9.9.1.7 1.3zm12 0c-.1.8-.5 1.7-.8 2.1-.5.4-.4-1.6.1-3.4.3-.9.9.1.7 1.3zm20 0c-.1.8-.5 1.7-.8 2.1-.5.4-.4-1.6.1-3.4.3-.9.9.1.7 1.3zM259 388c0 .5-.2 1-.4 1-.3 0-.8-.5-1.1-1-.3-.6-.1-1 .4-1 .6 0 1.1.4 1.1 1zm-6.5 1.9c-.9.8-3.6 1-3 .2.2-.4 1.1-.8 2-.8.8 0 1.3.3 1 .6zm29.9-.1c.3.5-.1.9-.9.9s-1.2-.4-.9-.9c.3-.4.7-.8.9-.8.2 0 .6.4.9.8zm13.6-.2c0 .8-1.9 1.3-2.4.6-.3-.5.1-.9.9-.9s1.5.2 1.5.3zm18.4.2c.3.5-.1.9-.9.9s-1.2-.4-.9-.9c.3-.4.7-.8.9-.8.2 0 .6.4.9.8zm-43.8 3.8c.1.9 0 1.3-.4 1-.3-.4-.7-1.4-.8-2.2-.1-.9 0-1.3.4-1 .3.4.7 1.4.8 2.2zm31.9-1.6c.3.5.1 1-.4 1-.6 0-1.1-.5-1.1-1 0-.6.2-1 .4-1 .3 0 .8.4 1.1 1zm-45.5.4c0 .2-.6.9-1.4 1.5-1.1.9-1.6.9-2.2 0-.4-.7-.3-.9.4-.5.6.3 1.3.2 1.7-.4.6-1 1.5-1.4 1.5-.6zm-22.3 2.8c.2 1.7 0 1.9-.7.8-.5-.8-.6-1.8-.4-2.2.8-1.2 1-1 1.1 1.4zm16.3-1.6c0 .8-1.9 1.3-2.4.6-.3-.5.1-.9.9-.9s1.5.2 1.5.3zm33.5.4c.3.5.1 1-.4 1-.6 0-1.1-.5-1.1-1 0-.6.2-1 .4-1 .3 0 .8.4 1.1 1zm-19.9 2.6c.1.9 0 1.3-.4 1-.3-.4-.7-1.4-.8-2.2-.1-.9 0-1.3.4-1 .3.4.7 1.4.8 2.2zm32 0c.1.9 0 1.3-.4 1-.3-.4-.7-1.4-.8-2.2-.1-.9 0-1.3.4-1 .3.4.7 1.4.8 2.2zm-71.9-.1c0 .8-.4 1.2-.9.9-.5-.3-.6-1-.3-1.5.9-1.3 1.2-1.1 1.2.6zm21.9 1.1c.1.9 0 1.3-.4 1-.3-.4-.7-1.4-.8-2.2-.1-.9 0-1.3.4-1 .3.4.7 1.4.8 2.2zm-6.6 0c0 .8-1.9 1.3-2.4.6-.3-.5.1-.9.9-.9s1.5.2 1.5.3zm18.6 2c.1.9 0 1.3-.4 1-.3-.4-.7-1.4-.8-2.2-.1-.9 0-1.3.4-1 .3.4.7 1.4.8 2.2zM277 398c0 .5-.2 1-.4 1-.3 0-.8-.5-1.1-1-.3-.6-.1-1 .4-1 .6 0 1.1.4 1.1 1zm-45.9 2.3c-.6.8-.7 1.8-.3 2.2.4.5.1.5-.6.1-1-.6-1-1.1-.1-2.2.6-.8 1.4-1.4 1.6-1.4.3 0 0 .6-.6 1.3zm59.9-.3c0 .5-.2 1-.4 1-.3 0-.8-.5-1.1-1-.3-.6-.1-1 .4-1 .6 0 1.1.4 1.1 1zm-12.3 1.5c0 .8-.4 1.2-.9.9-.5-.3-.6-1-.3-1.5.9-1.3 1.2-1.1 1.2.6zm-24.1 1c-.1.8-.5 1.7-.8 2.1-.5.4-.4-1.6.1-3.4.3-.9.9.1.7 1.3zM243 404c0 .5-.2 1-.4 1-.3 0-.8-.5-1.1-1-.3-.6-.1-1 .4-1 .6 0 1.1.4 1.1 1zm15.6.5c-.1.8-.5 1.7-.8 2.1-.5.4-.4-1.6.1-3.4.3-.9.9.1.7 1.3zm24 0c-.1.8-.5 1.7-.8 2.1-.5.4-.4-1.6.1-3.4.3-.9.9.1.7 1.3zm-48.1.4c.3.5.2 1.2-.3 1.5-.5.3-.9-.1-.9-.9 0-1.7.3-1.9 1.2-.6zM269 406c0 .5-.2 1-.4 1-.3 0-.8-.5-1.1-1-.3-.6-.1-1 .4-1 .6 0 1.1.4 1.1 1zm9.7.5c0 .8-.4 1.2-.9.9-.5-.3-.6-1-.3-1.5.9-1.3 1.2-1.1 1.2.6zm-62.2.4c.3.5.2 1.2-.3 1.5-.5.3-.9-.1-.9-.9 0-1.7.3-1.9 1.2-.6zm38.1 2.7c.1.9 0 1.3-.4 1-.3-.4-.7-1.4-.8-2.2-.1-.9 0-1.3.4-1 .3.4.7 1.4.8 2.2zm-33.6.4c0 .5-.5 1-1.1 1-.5 0-.7-.5-.4-1 .3-.6.8-1 1.1-1 .2 0 .4.4.4 1zm7.5 0c.3.5.1 1-.4 1-.6 0-1.1-.5-1.1-1 0-.6.2-1 .4-1 .3 0 .8.4 1.1 1zm10.2.5c0 .8-.4 1.2-.9.9-.5-.3-.6-1-.3-1.5.9-1.3 1.2-1.1 1.2.6zm24 0c0 .8-.4 1.2-.9.9-.5-.3-.6-1-.3-1.5.9-1.3 1.2-1.1 1.2.6zm13.9-.3c.3.4-.1.5-1 .4-.8-.1-1.8-.5-2.2-.8-.3-.4.1-.5 1-.4.8.1 1.8.5 2.2.8zm5.9-.3c.3.5.2 1.2-.3 1.5-.5.3-.9-.1-.9-.9 0-1.7.3-1.9 1.2-.6zm-33.9 2.7c.1.9 0 1.3-.4 1-.3-.4-.7-1.4-.8-2.2-.1-.9 0-1.3.4-1 .3.4.7 1.4.8 2.2zm-6.2 1.3c.3.5-.2 1.5-1.2 2.2-1.5 1.2-1.6 1.2-.5-.2.7-.9 1-1.9.6-2.2-.3-.4-.4-.7 0-.7.3 0 .8.4 1.1.9zm24.1 0c.3.5.2 1.2-.3 1.5-.5.3-.9-.1-.9-.9 0-1.7.3-1.9 1.2-.6zM207 416c0 .5-.2 1-.4 1-.3 0-.8-.5-1.1-1-.3-.6-.1-1 .4-1 .6 0 1.1.4 1.1 1zm27.6 1.6c.1.9 0 1.3-.4 1-.3-.4-.7-1.4-.8-2.2-.1-.9 0-1.3.4-1 .3.4.7 1.4.8 2.2zm-22.1.3c-.9.8-3.6 1-3 .2.2-.4 1.1-.8 2-.8.8 0 1.3.3 1 .6zm10.9-.1c.3.5-.1.9-.9.9s-1.2-.4-.9-.9c.3-.4.7-.8.9-.8.2 0 .6.4.9.8zm-14.9 2.1c.3.5.2 1.2-.3 1.5-.5.3-.9-.1-.9-.9 0-1.7.3-1.9 1.2-.6zm46 .1c.3.5.1 1-.4 1-.6 0-1.1-.5-1.1-1 0-.6.2-1 .4-1 .3 0 .8.4 1.1 1zm-40 1.9c.3.5.2 1.2-.3 1.5-.5.3-.9-.1-.9-.9 0-1.7.3-1.9 1.2-.6zm24 0c-.9.8-3.6 1-3 .2.2-.4 1.1-.8 2-.8.8 0 1.3.3 1 .6zm6 0c-.9.8-3.6 1-3 .2.2-.4 1.1-.8 2-.8.8 0 1.3.3 1 .6zm16.5.1c0 .5-.2 1-.4 1-.3 0-.8-.5-1.1-1-.3-.6-.1-1 .4-1 .6 0 1.1.4 1.1 1zm-14.3 3.5c0 .8-.4 1.2-.9.9-.5-.3-.6-1-.3-1.5.9-1.3 1.2-1.1 1.2.6zm-40.3.3c.2.4-.5.9-1.7.9-1.7.2-1.9 0-.7-.7 1.8-1.2 1.8-1.2 2.4-.2zm32.2.4c.3.4-.1.5-1 .4-.8-.1-1.8-.5-2.2-.8-.3-.4.1-.5 1-.4.8.1 1.8.5 2.2.8zm15.9-.3c.3.5.2 1.2-.3 1.5-.5.3-.9-.1-.9-.9 0-1.7.3-1.9 1.2-.6zm-51.8 4.6c0 .8-.4 1.2-.9.9-.5-.3-.6-1-.3-1.5.9-1.3 1.2-1.1 1.2.6zm14.3-.5c0 .5-.2 1-.4 1-.3 0-.8-.5-1.1-1-.3-.6-.1-1 .4-1 .6 0 1.1.4 1.1 1zm17.7 1.2c.2 1.7 0 1.9-.7.8-.5-.8-.6-1.8-.4-2.2.8-1.2 1-1 1.1 1.4zm-26 .3c0 .8-.4 1.2-.9.9-.5-.3-.6-1-.3-1.5.9-1.3 1.2-1.1 1.2.6zm-14.1 2.1c.1.9 0 1.3-.4 1-.3-.4-.7-1.4-.8-2.2-.1-.9 0-1.3.4-1 .3.4.7 1.4.8 2.2zM227 432c0 .5-.5 1-1.1 1-.5 0-.7-.5-.4-1 .3-.6.8-1 1.1-1 .2 0 .4.4.4 1zm11.7.9c0 1.1-.5 1.8-.9 1.5-.4-.3-.5-1.1-.1-1.9.7-2.1 1.2-1.9 1 .4zm-47.3.9c.3.5-.1.9-.9.9s-1.2-.4-.9-.9c.3-.4.7-.8.9-.8.2 0 .6.4.9.8zm13.1.1c-.9.8-3.6 1-3 .2.2-.4 1.1-.8 2-.8.8 0 1.3.3 1 .6zm16 0c-.9.8-3.6 1-3 .2.2-.4 1.1-.8 2-.8.8 0 1.3.3 1 .6zm-33.8 3c0 1.1-.5 1.8-.9 1.5-.4-.3-.5-1.1-.1-1.9.7-2.1 1.2-1.9 1 .4zm11.8 1c-.9.8-3.6 1-3 .2.2-.4 1.1-.8 2-.8.8 0 1.3.3 1 .6zm7.8 1.6c-.7 2.1-1.2 1.9-1-.4 0-1.1.5-1.8.9-1.5.4.3.5 1.1.1 1.9zm4.4-.3c.2 1.7 0 1.9-.7.8-.5-.8-.6-1.8-.4-2.2.8-1.2 1-1 1.1 1.4zm11.9.4c.1.9 0 1.3-.4 1-.3-.4-.7-1.4-.8-2.2-.1-.9 0-1.3.4-1 .3.4.7 1.4.8 2.2zm-32.3 3.9c-.7 2.1-1.2 1.9-1-.4 0-1.1.5-1.8.9-1.5.4.3.5 1.1.1 1.9zm28.1-1.7c.3.5-.1.9-.9.9s-1.2-.4-.9-.9c.3-.4.7-.8.9-.8.2 0 .6.4.9.8zm-16.9 6.2c-.3.5-1.2 1-1.8 1-.7 0-.6-.4.3-1 1.9-1.2 2.3-1.2 1.5 0zm-21.5 1.6c0 .8-1.9 1.3-2.4.6-.3-.5.1-.9.9-.9s1.5.2 1.5.3zm6.5.3c-.9.8-3.6 1-3 .2.2-.4 1.1-.8 2-.8.8 0 1.3.3 1 .6zm8.1 1.7c.1.9 0 1.3-.4 1-.3-.4-.7-1.4-.8-2.2-.1-.9 0-1.3.4-1 .3.4.7 1.4.8 2.2zm12.4-.2c0 .3-.4.8-1 1.1-.5.3-1 .1-1-.4 0-.6.5-1.1 1-1.1.6 0 1 .2 1 .4zm-17.5 4.5c-.9.8-3.6 1-3 .2.2-.4 1.1-.8 2-.8.8 0 1.3.3 1 .6zm5.1.6c-.1.8-.5 1.7-.8 2.1-.5.4-.4-1.6.1-3.4.3-.9.9.1.7 1.3zm-12.1.4c.3.5.2 1.2-.3 1.5-.5.3-.9-.1-.9-.9 0-1.7.3-1.9 1.2-.6zm-7.9 1.3c.3.4-.1.5-1 .4-.8-.1-1.8-.5-2.2-.8-.3-.4.1-.5 1-.4.8.1 1.8.5 2.2.8zm-3.9 4.3c0 .8-.4 1.2-.9.9-.5-.3-.6-1-.3-1.5.9-1.3 1.2-1.1 1.2.6zm10.3-1c0 .7-3 1.3-3.4.7-.3-.4.4-.9 1.5-.9 1-.1 1.9 0 1.9.2zm12-.1c0 .3-.4.8-1 1.1-.5.3-1 .1-1-.4 0-.6.5-1.1 1-1.1.6 0 1 .2 1 .4zm-30.4 4.2c.1.9 0 1.3-.4 1-.3-.4-.7-1.4-.8-2.2-.1-.9 0-1.3.4-1 .3.4.7 1.4.8 2.2zm22.8-1.8c.3.5-.1.9-.9.9s-1.2-.4-.9-.9c.3-.4.7-.8.9-.8.2 0 .6.4.9.8zm-18.9 6.1c-.9.8-3.6 1-3 .2.2-.4 1.1-.8 2-.8.8 0 1.3.3 1 .6zm6 0c-.9.8-3.6 1-3 .2.2-.4 1.1-.8 2-.8.8 0 1.3.3 1 .6zm9 .1c.3.6-.1.7-.9.4-1.8-.7-2.1-1.4-.7-1.4.6 0 1.3.4 1.6 1zm-22.9 2.5c-.1.8-.5 1.7-.8 2.1-.5.4-.4-1.6.1-3.4.3-.9.9.1.7 1.3zm-8 1.7c.3.4-.1.5-1 .4-.8-.1-1.8-.5-2.2-.8-.3-.4.1-.5 1-.4.8.1 1.8.5 2.2.8zm-3.9 4.3c0 .8-.4 1.2-.9.9-.5-.3-.6-1-.3-1.5.9-1.3 1.2-1.1 1.2.6zm10.3-1c0 .7-3 1.3-3.4.7-.3-.4.4-.9 1.5-.9 1-.1 1.9 0 1.9.2zm-12.5 4.4c-.9.8-3.6 1-3 .2.2-.4 1.1-.8 2-.8.8 0 1.3.3 1 .6zm-5.9 3.7c.1.9 0 1.3-.4 1-.3-.4-.7-1.4-.8-2.2-.1-.9 0-1.3.4-1 .3.4.7 1.4.8 2.2zm0 4.9c-.1.8-.5 1.7-.8 2.1-.5.4-.4-1.6.1-3.4.3-.9.9.1.7 1.3zm-9.9 2c0 .8-.4 1.2-.9.9-.5-.3-.6-1-.3-1.5.9-1.3 1.2-1.1 1.2.6zM188.5 129.6c-10 2.1-12.8 3-19.6 6.2-12.3 5.9-24.2 16.4-31.7 28.1-3.7 5.7-7.9 14.6-8.6 18.3-.3 1.3-1.1 4.8-2 7.8-1.4 5.3-1.6 25.3-.3 30.6 4.1 16.2 10.1 27.5 20.4 38.2 12.4 12.7 25.6 19.6 43.5 22.6 38 6.4 75.1-17.1 85.9-54.4 2.8-9.5 3.1-11.6 3.1-21.5 0-9.6-.3-11.8-2.6-20.6-6.9-26.1-28.5-47.3-55.7-54.4-8-2.2-24.4-2.6-32.4-.9zM35.5 185.8c-4.5.7-8.2 2.7-11.6 6.3-8.7 9-6.6 23.4 4.3 30.6l4.2 2.8 33.8.1 33.9.1-.7-5.6c-.8-6.2-1-18.3-.3-28.1l.4-6.5h-31c-17 0-31.9.1-33 .3zM91.9 287.7c-21.4 21.6-23.7 24.2-24.8 28.5-2.2 9.1 1.2 17.4 9 22.4 5 3.1 13.6 3.7 18.4 1.2 4-2.1 49.8-47.9 48.8-48.8-.4-.3-3.3-2.6-6.3-5.1-6.4-5.1-12.8-11.7-17.3-17.6-1.8-2.3-3.4-4.3-3.7-4.3-.3 0-11.2 10.7-24.1 23.7z"/></svg>