<svg xmlns="http://www.w3.org/2000/svg" width="519" height="168" viewBox="0 0 519 168">
  <g id="Group_49" data-name="Group 49" transform="translate(-62 -242)">
    <rect id="Rectangle_17" data-name="Rectangle 17" width="519" height="168" transform="translate(62 242)" fill="none" opacity="0.24"/>
    <text id="TORNALTÍ_SOLAR" data-name="TORNALTÍ
SOLAR" transform="translate(252 319)" fill="#707070" font-size="58" font-family="Poppins-Regular, Poppins" letter-spacing="0.075em"><tspan x="0" y="0">TORNALTÍ</tspan><tspan x="0" y="61">SOLAR</tspan></text>
    <g id="Group_72" data-name="Group 72" transform="translate(-608 11)">
      <path id="Path_21" data-name="Path 21" d="M104-1V97.392a6.561,6.561,0,0,1-6.562,6.559H-1Z" transform="translate(724 271)" fill="#008ab4" opacity="0.78"/>
      <path id="Path_29" data-name="Path 29" d="M0,0V53.88" transform="translate(720.246 267.246) rotate(-45)" fill="none" stroke="#ffe200" stroke-linecap="round" stroke-width="10"/>
      <path id="Path_32" data-name="Path 32" d="M0,0V82.129" transform="translate(778.32 267.246) rotate(45)" fill="none" stroke="#ffe200" stroke-linecap="round" stroke-width="10"/>
      <path id="Path_33" data-name="Path 33" d="M0,0V53.88" transform="translate(749.283 255.219)" fill="none" stroke="#ffe200" stroke-linecap="round" stroke-width="10"/>
      <path id="Path_31" data-name="Path 31" d="M0,0V53.88" transform="translate(708.218 296.283) rotate(-90)" fill="none" stroke="#ffe200" stroke-linecap="round" stroke-width="10"/>
      <g id="Path_30" data-name="Path 30" transform="translate(729.925 276.926)" fill="#ffe200">
        <path d="M 19.29952239990234 42.09904098510742 C 16.22315216064453 42.09904098510742 13.23694229125977 41.49574279785156 10.42384243011475 40.30590057373047 C 7.708482265472412 39.15740203857422 5.270562171936035 37.51395416259766 3.177832365036011 35.42121124267578 C 1.085092425346375 33.32848358154297 -0.5583575963973999 30.89056205749512 -1.706857562065125 28.17520332336426 C -2.896697521209717 25.36210250854492 -3.499997615814209 22.37589263916016 -3.499997615814209 19.29952239990234 C -3.499997615814209 16.22315216064453 -2.896697521209717 13.23694229125977 -1.706857562065125 10.42384243011475 C -0.5583575963973999 7.708482265472412 1.085092425346375 5.270562171936035 3.177832365036011 3.177832365036011 C 5.270562171936035 1.085092425346375 7.708482265472412 -0.5583575963973999 10.42384243011475 -1.706857562065125 C 13.23694229125977 -2.896697521209717 16.22315216064453 -3.499997615814209 19.29952239990234 -3.499997615814209 C 22.37589263916016 -3.499997615814209 25.36210250854492 -2.896697521209717 28.17520332336426 -1.706857562065125 C 30.89056205749512 -0.5583575963973999 33.32848358154297 1.085092425346375 35.42121124267578 3.177832365036011 C 37.51395416259766 5.270562171936035 39.15740203857422 7.708482265472412 40.30590057373047 10.42384243011475 C 41.49574279785156 13.23694229125977 42.09904098510742 16.22315216064453 42.09904098510742 19.29952239990234 C 42.09904098510742 22.37589263916016 41.49574279785156 25.36210250854492 40.30590057373047 28.17520332336426 C 39.15740203857422 30.89056205749512 37.51395416259766 33.32848358154297 35.42121124267578 35.42121124267578 C 33.32848358154297 37.51395416259766 30.89056205749512 39.15740203857422 28.17520332336426 40.30590057373047 C 25.36210250854492 41.49574279785156 22.37589263916016 42.09904098510742 19.29952239990234 42.09904098510742 Z" stroke="none"/>
        <path d="M 19.29952239990234 -3.814697265625e-06 C 8.640684127807617 -3.814697265625e-06 -3.814697265625e-06 8.640684127807617 -3.814697265625e-06 19.29952239990234 C -3.814697265625e-06 29.95835876464844 8.640684127807617 38.59904861450195 19.29952239990234 38.59904861450195 C 29.95835876464844 38.59904861450195 38.59904861450195 29.95835876464844 38.59904861450195 19.29952239990234 C 38.59904861450195 8.640684127807617 29.95835876464844 -3.814697265625e-06 19.29952239990234 -3.814697265625e-06 M 19.29952239990234 -7.000003814697266 C 33.8011360168457 -7.000003814697266 45.59904861450195 4.797908782958984 45.59904861450195 19.29952239990234 C 45.59904861450195 33.8011360168457 33.8011360168457 45.59904861450195 19.29952239990234 45.59904861450195 C 4.797908782958984 45.59904861450195 -7.000003814697266 33.8011360168457 -7.000003814697266 19.29952239990234 C -7.000003814697266 4.797908782958984 4.797908782958984 -7.000003814697266 19.29952239990234 -7.000003814697266 Z" stroke="none" fill="#fafafa"/>
      </g>
      <path id="Path_28" data-name="Path 28" d="M104,43.167l-.049,54.225a6.559,6.559,0,0,1-6.559,6.559H-1Z" transform="translate(724 271)" fill="#008ab4"/>
    </g>
  </g>
</svg>
