<svg xmlns="http://www.w3.org/2000/svg" width="1373" height="64.899" viewBox="0 0 1373 64.899">
  <g id="Group_19" data-name="Group 19" transform="translate(0 -308)">
    <g id="Layer_2" data-name="Layer 2" transform="translate(0 308)">
      <g id="Artboard2">
        <path id="Path_12" data-name="Path 12" d="M750,26.74C694,4.42,650.41,1.62,621.84,2.87c-57.7,2.52-71.72,22.29-125.22,19.89C440.76,20.24,431.12-2.46,382.22.22c-42.62,2.33-45.16,20.12-88,21.21C249.89,22.57,240.06,3.77,196.15,6c-40.63,2-42.85,18.62-77.09,17.2-35-1.45-48.79-19.45-89.13-18.56A141.44,141.44,0,0,0,0,8.62V64.9H750Z" fill="#001529"/>
      </g>
    </g>
    <g id="Layer_2-2" data-name="Layer 2" transform="translate(623 308)">
      <g id="Artboard2-2" data-name="Artboard2">
        <path id="Path_12-2" data-name="Path 12" d="M750,26.74C694,4.42,650.41,1.62,621.84,2.87c-57.7,2.52-71.72,22.29-125.22,19.89C440.76,20.24,431.12-2.46,382.22.22c-42.62,2.33-45.16,20.12-88,21.21C249.89,22.57,240.06,3.77,196.15,6c-40.63,2-42.85,18.62-77.09,17.2-35-1.45-48.79-19.45-89.13-18.56A141.44,141.44,0,0,0,0,8.62V64.9H750Z" fill="#001529"/>
      </g>
    </g>
  </g>
</svg>
