<svg xmlns="http://www.w3.org/2000/svg" width="1358" height="74.993" viewBox="0 0 1358 74.993">
  <g id="Group_17" data-name="Group 17" transform="translate(0 -242)">
    <g id="Layer_2" data-name="Layer 2" transform="translate(0 241.993)">
      <g id="Artboard2">
        <path id="Path_10" data-name="Path 10" d="M750,18.26C714,3.13,682.93-1.67,657.4.86c-36.4,3.6-42.25,20.26-76.86,21.66-39.84,1.61-53-19.54-92.08-17.95S444.15,28,407.81,28.86C367.54,29.84,356.1,3.48,313.26,3c-44.51-.51-60.06,27.65-102.65,25.88-31.8-1.32-63.16-22-96.95-27.63C87.42-3.15,71,3.49,0,31.51V75H750Z" fill="#81cfe2"/>
      </g>
    </g>
    <g id="Layer_2-2" data-name="Layer 2" transform="translate(608 242)">
      <g id="Artboard2-2" data-name="Artboard2" transform="translate(0 0)">
        <path id="Path_10-2" data-name="Path 10" d="M0,18.26C36,3.13,67.07-1.67,92.6.86c36.4,3.6,42.25,20.26,76.86,21.66,39.84,1.61,53-19.54,92.08-17.95S305.85,28,342.19,28.86C382.46,29.84,393.9,3.48,436.74,3c44.51-.51,60.06,27.65,102.65,25.88,31.8-1.32,63.16-22,96.95-27.63C662.58-3.15,679,3.49,750,31.51V75H0Z" transform="translate(0 -0.007)" fill="#81cfe2"/>
      </g>
    </g>
  </g>
</svg>
