<svg xmlns="http://www.w3.org/2000/svg" width="1343" height="67.312" viewBox="0 0 1343 67.312">
  <g id="Group_18" data-name="Group 18" transform="translate(0 -283)">
    <g id="Layer_2" data-name="Layer 2" transform="translate(0 282.992)">
      <g id="Artboard2">
        <path id="Path_11" data-name="Path 11" d="M0,2.47c23,12.4,54.73,25.3,89.79,21.83,34.89-3.45,40.57-20,74.33-22.48,47.06-3.45,59.39,26.94,108.65,26.26,44.51-.62,47.77-25.64,94.84-27.92,49.6-2.41,59.17,24.71,111.64,23.53C526.88,22.61,530,0,575.59.69s58.82,23.65,105.17,23.54C710.91,24.15,735,14.36,750,6.71V67.32H0Z" fill="#42a2bc"/>
      </g>
    </g>
    <g id="Layer_2-2" data-name="Layer 2" transform="translate(593 282.992)">
      <g id="Artboard2-2" data-name="Artboard2">
        <path id="Path_11-2" data-name="Path 11" d="M0,2.47c23,12.4,54.73,25.3,89.79,21.83,34.89-3.45,40.57-20,74.33-22.48,47.06-3.45,59.39,26.94,108.65,26.26,44.51-.62,47.77-25.64,94.84-27.92,49.6-2.41,59.17,24.71,111.64,23.53C526.88,22.61,530,0,575.59.69s58.82,23.65,105.17,23.54C710.91,24.15,735,14.36,750,6.71V67.32H0Z" fill="#42a2bc"/>
      </g>
    </g>
  </g>
</svg>
