<svg xmlns="http://www.w3.org/2000/svg" viewBox="0 0 750.68 276.03"><defs><style>.cls-1{fill:#bfe6ef;}.cls-2{fill:#9cdde8;}.cls-3{fill:#81cfe2;}.cls-4{fill:#62c3d3;}.cls-5{fill:#42a2bc;}.cls-6{fill:#2b879c;}.cls-7{fill:#00647f;}.cls-8{fill:#001529;}</style></defs><title>waves</title><g id="Layer_2" data-name="Layer 2"><g id="Artboard2"><path class="cls-1" d="M750.68,19.87c-98.55,13.72-145.27,7.4-203-10.72S455.4,1.6,388.42,25.21,229.24,8.8,159.95,8.8,49,32.78,0,32.78V83H750.39Z"/><path class="cls-2" d="M750.58,55.63C732.84,45.9,705.21,34,672,34.66c-34.81.73-43.19,14.25-84,17.34-42.85,3.24-48.45-10.72-93.39-9.33-51.71,1.6-54.2,20.28-97.3,20.16-53.2-.15-60.67-28.69-113-28.93-48.29-.22-53.42,24-101.21,22.91C135.74,55.68,122.8,31.42,76.64,31.15,43.2,31,17,43.49,0,53V103H750.68Z"/><path class="cls-3" d="M750,79.33c-36-15.13-67.07-19.93-92.6-17.4C621,65.54,615.15,82.19,580.54,83.59c-39.84,1.61-53-19.54-92.08-17.95s-44.31,23.42-80.65,24.29c-40.27,1-51.71-25.39-94.55-25.87-44.51-.51-60.06,27.65-102.65,25.88-31.8-1.32-63.16-22-96.95-27.63C87.42,57.92,71,64.56,0,92.58V136H750Z"/><path class="cls-4" d="M750.68,135c-25.61-21.07-63.51-44.85-106.44-42.57C599.74,94.8,590.41,123.2,542.49,127c-59.3,4.67-77.14-36.17-135.24-32-55.74,4-67,33.11-112.11,29.71-45.69-3.44-53.24-35-94.77-35.43-39.81-.43-51.62,28.61-95.9,33.25C79.08,125.18,45,125.95,0,87.9V161H750.44Z"/><path class="cls-5" d="M0,126.17c23,12.4,54.73,25.3,89.79,21.83,34.89-3.45,40.57-20,74.33-22.48,47.06-3.45,59.39,26.94,108.65,26.26,44.51-.62,47.77-25.64,94.84-27.92,49.6-2.41,59.17,24.71,111.64,23.53,47.63-1.07,50.76-23.67,96.34-23S634.41,148,680.76,147.93c30.14-.08,54.24-9.87,69.24-17.52V191H0Z"/><path class="cls-6" d="M.78,174.7c17.74-9.74,45.37-21.63,78.6-20.94,34.81.73,43.19,14.26,84,17.36,42.85,3.24,48.45-10.71,93.39-9.33,51.71,1.6,54.2,20.28,97.3,20.16,53.2-.15,60.67-28.69,113-28.93,48.29-.22,53.42,24,101.21,22.91,47.34-1.12,59.61-25.38,105.77-25.65,33.44-.2,60,12.33,76,21.82V222H.68Z"/><path class="cls-7" d="M750,210.86c-56-22.31-99.59-25.11-128.16-23.86-57.7,2.52-71.72,22.29-125.22,19.89-55.86-2.51-65.5-25.21-114.4-22.54-42.62,2.33-45.16,20.12-88,21.21-44.37,1.13-54.2-17.66-98.11-15.47-40.63,2-42.85,18.65-77.09,17.24-35-1.45-48.79-19.45-89.13-18.56a141.44,141.44,0,0,0-29.94,4V249H750Z"/><path class="cls-8" d="M750,222c-55-13-76.43,15.75-105,17-57.7,2.52-85.5-15.59-139-18-55.86-2.51-75.1,14.33-124,17-42.62,2.33-48.6-13.06-91-19-50-7-52,3-96,20-37.95,14.66-61,6-96-6-33.12-11.35-28.73-18.15-69.06-17.26a141.44,141.44,0,0,0-29.94,4V276H750Z"/></g></g></svg>